/* XPM */
static char * character_v1_xpm[] = {
"60 59 19 1",
" 	c #72751B",
".	c #787B21",
"+	c #7F8226",
"@	c #656C17",
"#	c #B3B0A9",
"$	c #A2814F",
"%	c #636917",
"&	c #9CA8AD",
"*	c #272034",
"=	c #5BD94C",
"-	c #255239",
";	c #2B8233",
">	c #372C53",
",	c #862C3A",
"'	c #C3503C",
")	c #F6EC3C",
"!	c #EE8A45",
"~	c #5D988D",
"{	c #36547D",
"                                     ..                     ",
"                                 ++. @.                     ",
"                                  +..@@ ++.                 ",
"                               .+ @.. @..+                  ",
"                                +..@. ...                   ",
"                                @.. @@..@                   ",
"            ##                   @.  @@@                    ",
"           #$$#                   @ ..                      ",
"           %##%                     +@                      ",
"            %%                      @                       ",
"                                                     .++    ",
"                                                    ..+     ",
"                                                    ..@     ",
"                                               .+  &&@      ",
"                                               @+.&$$&+     ",
"                                                ..%&&%@     ",
"                                                @.@%%@      ",
"                          ******                 @@..@      ",
"                        **======**                 .@       ",
"                       *-;=======;*                         ",
"                      *---;=====;--*                        ",
"                      *-->>>----->>*                        ",
"                     *->>;========;>*                       ",
"                     *>;=;---------;*                       ",
"                     *>;--->>>>>>>--*                       ",
"                     *=->**********>*                       ",
"                   ***->*,,,,,'',,,**                       ",
"                   *-*-*,,''*'))!*'**                       ",
"                   *>-*'!''!)!))!)!'*                       ",
"                    *>>*,''!!!,,!!'*                        ",
"                     ***,,''!!''!!'*                        ",
"                       **>>,''''''>*                        ",
"                      *~---;;;>>;;-*                  +     ",
"                      *~~--;;;--;;-*             ++.  ..    ",
"                     *''~---;;--;--,*             +.. @.  + ",
"                     *''*****>>>***,*             @..&& ..@ ",
"        +             ***--;;;-;;;**             +.@.$& ..@ ",
"   ++.  ..              *{~~***>>{*              @##@%% @@  ",
"    +.. @.  &&          *{~*   *{{*              #$$#@##    ",
"    @...@ ..&$&         ***    ***               %##%#$#    ",
"   +.@.. ##.%&&                                   %% ##%    ",
"   @..@.#$$# %%                                      %%     ",
"    @.@@%##% ##                                             ",
"         %% #$$#                                            ",
"     &&   ##%##%                                            ",
"     $&  #$# %%                                             ",
"     %%  ##%                                                ",
"         %%                                                 ",
"                                                            ",
"                                  ++                        ",
"                                   +..   ++                 ",
"                                   @..  .+                  ",
"                                    @@ ...                  ",
"                                       ..@                  ",
"                                       @@                   ",
"                                                            ",
"                                                            ",
"                                                            ",
"                                                            "};
