/* XPM */
static char * character_v2_xpm[] = {
"61 60 20 1",
" 	c None",
".	c #72751B",
"+	c #787B21",
"@	c #7F8226",
"#	c #656C17",
"$	c #272034",
"%	c #5BD94C",
"&	c #B3B0A9",
"*	c #A2814F",
"=	c #255239",
"-	c #2B8233",
";	c #636917",
">	c #372C53",
",	c #9CA8AD",
"'	c #862C3A",
")	c #C3503C",
"!	c #F6EC3C",
"~	c #EE8A45",
"{	c #5D988D",
"]	c #36547D",
".....................................++..................... ",
".................................@@+.#+..................... ",
"........................$$$$$$$$$$$$$##.@@+................. ",
"........................$$$$$$$$$$$$$.#++@.................. ",
"....................$$$$%%%%%%%%%%%%%$$$$................... ",
"....................$$$$%%%%%%%%%%%%%$$$$................... ",
"............&&......$$$$%%%%%%%%%%%%%$$$$................... ",
"...........&**&...$$==--%%%%%%%%%%%%%%%--$$................. ",
"...........;&&;...$$==--%%%%%%%%%%%%%%%--$$................. ",
"............;;.$$$======--%%%%%%%%%%%--====$$............... ",
"...............$$$======--%%%%%%%%%%%--====$$........+@@.... ",
"...............$$$====>>>>>>===========>>>>$$.......++@..... ",
"...............$$$====>>>>>>===========>>>>$$.......++#..... ",
".............$$===>>>>--%%%%%%%%%%%%%%%%%-->>$$$@..,,#...... ",
".............$$===>>>>--%%%%%%%%%%%%%%%%%-->>$$$@+,**,@..... ",
".............$$>>>--%%--===================--$$$++;,,;#..... ",
".............$$>>>--%%--===================--$$$#+#;;#...... ",
".............$$>>>--======>>>>>>>>>>>>>>>====$$$.##++#...... ",
".............$$>>>--======>>>>>>>>>>>>>>>====$$$...+#....... ",
".............$$%%%==>>$$$$$$$$$$$$$$$$$$$$$>>$$$............ ",
".............$$%%%==>>$$$$$$$$$$$$$$$$$$$$$>>$$$............ ",
".............$$%%%==>>$$$$$$$$$$$$$$$$$$$$$>>$$$............ ",
".........$$$$$$===>>$$'''''''''''))))''''''$$$$$............ ",
".........$$$$$$===>>$$'''''''''''))))''''''$$$$$............ ",
".........$$==$$===$$''''))))$$)))!!!!~~$$))$$$$$............ ",
".........$$==$$===$$''''))))$$)))!!!!~~$$))$$$$$............ ",
".........$$>>==$$$))~~))))~~!!~~~!!!!~~!!~~))$$$............ ",
".........$$>>==$$$))~~))))~~!!~~~!!!!~~!!~~))$$$............ ",
"...........$$>>>>>$$''))))~~~~~~~''''~~~~))$$............... ",
"...........$$>>>>>$$''))))~~~~~~~''''~~~~))$$............... ",
".............$$$$$$$''''))))~~~~~))))~~~~))$$............... ",
".............$$$$$$$''''))))~~~~~))))~~~~))$$............... ",
"..................$$$$>>>>'')))))))))))))>>$$.........@..... ",
"..................$$$$>>>>'')))))))))))))>>$$....@@+..++.... ",
"...............$$${{======------->>>>----==$$.....@++.#+..@. ",
"...............$$${{======------->>>>----==$$.....#++,,.++#. ",
"........@......$$${{======------->>>>----==$$....@+#+*,.++#. ",
"...@@+..++.....$$${{{{====-------====----==$$....#&&#;;.##.. ",
"....@++.#+..,,.$$${{{{====-------====----==$$....&**&#&&.... ",
"....#+++#.++,$$))))){{======-----====--====''$$$.;&&;&*&.... ",
"...@+#++.&&+;$$))))){{======-----====--====''$$$..;;.&&;.... ",
"...#++#+&**&.$$)))))$$$$$$$$$$>>>>>>>$$$$$$''$$$.....;;..... ",
"....#+##;&&;.$$)))))$$$$$$$$$$>>>>>>>$$$$$$''$$$............ ",
".........;;.&**$$$$$$$====-------==------$$$$............... ",
".....,,...&&;&&$$$$$$$====-------==------$$$$............... ",
".....*,..&*&.;;.....$$]]{{{{$$$$$$$>>>>]]$$................. ",
".....;;..&&;........$$]]{{{{$$$$$$$>>>>]]$$................. ",
".........;;.........$$]]{{$$.......$$]]]]$$................. ",
"....................$$]]{{$$.......$$]]]]$$................. ",
"....................$$$$$$........@$$$$$$................... ",
"....................$$$$$$.........$$$$$$@@................. ",
"...................................#++..+@.................. ",
"....................................##.+++.................. ",
".......................................++#.................. ",
".......................................##................... ",
"............................................................ ",
"............................................................ ",
"............................................................ ",
"............................................................ ",
"..........................................+@................ "};
