/* XPM */
static char * characters_xpm[] = {
"22 32 396 2",
"  	c None",
". 	c #292E35",
"+ 	c #250033",
"@ 	c #356539",
"# 	c #4AAB43",
"$ 	c #4CB044",
"% 	c #4BAE44",
"& 	c #38733B",
"* 	c #240033",
"= 	c #263336",
"- 	c #264335",
"; 	c #378239",
"> 	c #59D54B",
", 	c #5CDC4D",
"' 	c #5CDB4C",
") 	c #5BD94C",
"! 	c #4CAF44",
"~ 	c #377A39",
"{ 	c #285233",
"] 	c #273135",
"^ 	c #264437",
"/ 	c #256037",
"( 	c #348C38",
"_ 	c #50C445",
": 	c #5AD74B",
"< 	c #5BDA4C",
"[ 	c #55CD48",
"} 	c #40A33D",
"| 	c #276434",
"1 	c #263535",
"2 	c #272434",
"3 	c #264637",
"4 	c #255239",
"5 	c #26513A",
"6 	c #295E3C",
"7 	c #34883C",
"8 	c #51C149",
"9 	c #58D04B",
"0 	c #57CF4A",
"a 	c #56CD49",
"b 	c #3D9F3C",
"c 	c #2A6B39",
"d 	c #28503D",
"e 	c #28473B",
"f 	c #272735",
"g 	c #272634",
"h 	c #264738",
"i 	c #25523A",
"j 	c #2B4942",
"k 	c #343E4E",
"l 	c #37504F",
"m 	c #3E6951",
"n 	c #397846",
"o 	c #357D3D",
"p 	c #347C3D",
"q 	c #2C6B3A",
"r 	c #305246",
"s 	c #363E50",
"t 	c #32354A",
"u 	c #292438",
"v 	c #272B35",
"w 	c #264338",
"x 	c #2F3E47",
"y 	c #32364C",
"z 	c #304D48",
"A 	c #388143",
"B 	c #50B34E",
"C 	c #52B74F",
"D 	c #4FB94A",
"E 	c #4EBA46",
"F 	c #4EBB47",
"G 	c #51BB4C",
"H 	c #48A44A",
"I 	c #316843",
"J 	c #323249",
"K 	c #2B203C",
"L 	c #282737",
"M 	c #2E4145",
"N 	c #315A47",
"O 	c #428A4C",
"P 	c #429847",
"Q 	c #338D37",
"R 	c #46A942",
"S 	c #48AC43",
"T 	c #47AC43",
"U 	c #48AD43",
"V 	c #3E9A3E",
"W 	c #2B6F39",
"X 	c #306144",
"Y 	c #2A3739",
"Z 	c #2A203A",
"` 	c #342B4F",
" .	c #2F713E",
"..	c #42A83E",
"+.	c #45AA41",
"@.	c #297236",
"#.	c #255439",
"$.	c #2A4841",
"%.	c #2B4643",
"&.	c #2B4642",
"*.	c #294A3F",
"=.	c #265B38",
"-.	c #287035",
";.	c #274034",
">.	c #2B3039",
",.	c #3B5E4D",
"'.	c #31763F",
").	c #2B6C39",
"!.	c #29553C",
"~.	c #254F38",
"{.	c #264B3A",
"].	c #31354A",
"^.	c #342C4F",
"/.	c #342D4E",
"(.	c #332C4E",
"_.	c #2F3A47",
":.	c #264D3A",
"<.	c #284D3C",
"[.	c #272F36",
"}.	c #32583A",
"|.	c #51BC49",
"1.	c #3A8940",
"2.	c #2D4146",
"3.	c #332E47",
"4.	c #312B36",
"5.	c #312A35",
"6.	c #322439",
"7.	c #33223A",
"8.	c #332239",
"9.	c #36233A",
"0.	c #3D253A",
"a.	c #322537",
"b.	c #322C3B",
"c.	c #33304B",
"d.	c #2A253B",
"e.	c #3A5E4B",
"f.	c #56C84C",
"g.	c #42864D",
"h.	c #2B1F46",
"i.	c #50243C",
"j.	c #742838",
"k.	c #732838",
"l.	c #863338",
"m.	c #A74539",
"n.	c #A74439",
"o.	c #863238",
"p.	c #762938",
"q.	c #6B273A",
"r.	c #37233E",
"s.	c #272137",
"t.	c #4CA84D",
"u.	c #47AD43",
"v.	c #376943",
"w.	c #4F163E",
"x.	c #702337",
"y.	c #8C2E3A",
"z.	c #A8403B",
"A.	c #AB423B",
"B.	c #BE5F3F",
"C.	c #A2523C",
"D.	c #822538",
"E.	c #C5653C",
"F.	c #DDAD3C",
"G.	c #D0883F",
"H.	c #98473B",
"I.	c #7F2D38",
"J.	c #9A3B39",
"K.	c #422434",
"L.	c #242034",
"M.	c #49B742",
"N.	c #2F8037",
"O.	c #244133",
"P.	c #8C473A",
"Q.	c #B65E3F",
"R.	c #B85A3E",
"S.	c #C4543C",
"T.	c #D1653F",
"U.	c #E78043",
"V.	c #CF923F",
"W.	c #AD8B39",
"X.	c #D7873F",
"Y.	c #F3E03D",
"Z.	c #F5CB40",
"`.	c #C88D3E",
" +	c #B15E3C",
".+	c #C1613D",
"++	c #4F2D35",
"@+	c #1F1E34",
"#+	c #2B7736",
"$+	c #29563D",
"%+	c #243037",
"&+	c #AA603C",
"*+	c #E28043",
"=+	c #DF7842",
"-+	c #CA5B3D",
";+	c #E58043",
">+	c #EE8945",
",+	c #F0B642",
"'+	c #F1C940",
")+	c #ED9B43",
"!+	c #E7CF3D",
"~+	c #E6D83C",
"{+	c #E9B241",
"]+	c #EB8545",
"^+	c #D17541",
"/+	c #573436",
"(+	c #28513C",
"_+	c #32374B",
":+	c #2A243D",
"<+	c #713237",
"[+	c #A9483C",
"}+	c #C3543D",
"|+	c #C7573D",
"1+	c #E47E43",
"2+	c #EE9145",
"3+	c #EF9545",
"4+	c #E58644",
"5+	c #AA653C",
"6+	c #995C3A",
"7+	c #CE7940",
"8+	c #E47C43",
"9+	c #B7523B",
"0+	c #4D2935",
"a+	c #272E36",
"b+	c #2B253C",
"c+	c #272037",
"d+	c #662537",
"e+	c #8B2E3A",
"f+	c #A03C3B",
"g+	c #C0503C",
"h+	c #CC5F3E",
"i+	c #E37D43",
"j+	c #EE8A45",
"k+	c #E78344",
"l+	c #BF543D",
"m+	c #B5433B",
"n+	c #D77241",
"o+	c #E17A42",
"p+	c #B24A3B",
"q+	c #4B2735",
"r+	c #531E33",
"s+	c #5D223D",
"t+	c #692E4A",
"u+	c #883B4A",
"v+	c #9E3C3F",
"w+	c #C65D3E",
"x+	c #D86C40",
"y+	c #D5693F",
"z+	c #C8553C",
"A+	c #C5503B",
"B+	c #D1613E",
"C+	c #C05E3D",
"D+	c #833837",
"E+	c #3C5C5B",
"F+	c #3A5A5B",
"G+	c #2B3D49",
"H+	c #323E49",
"I+	c #623F3E",
"J+	c #8D5A38",
"K+	c #9D6738",
"L+	c #9C6738",
"M+	c #9C633B",
"N+	c #9E4A45",
"O+	c #9E4347",
"P+	c #9E5940",
"Q+	c #805A37",
"R+	c #243936",
"S+	c #211C33",
"T+	c #487570",
"U+	c #518A7E",
"V+	c #356452",
"W+	c #27543C",
"X+	c #275239",
"Y+	c #2C7335",
"Z+	c #2F8333",
"`+	c #2F8233",
" @	c #307B37",
".@	c #36484B",
"+@	c #37354E",
"@@	c #336941",
"#@	c #2C7535",
"$@	c #254C38",
"%@	c #252834",
"&@	c #492534",
"*@	c #5E716B",
"=@	c #67958A",
"-@	c #538A7E",
";@	c #2D5A45",
">@	c #245238",
",@	c #297036",
"'@	c #2B8133",
")@	c #2B8233",
"!@	c #2A7D34",
"~@	c #27593A",
"{@	c #274F3C",
"]@	c #296D37",
"^@	c #287236",
"/@	c #2A4C38",
"(@	c #372935",
"_@	c #3C2434",
":@	c #9D4239",
"<@	c #B65748",
"[@	c #9D7B6E",
"}@	c #588C80",
"|@	c #245138",
"1@	c #265838",
"2@	c #286F36",
"3@	c #2B7C35",
"4@	c #265A39",
"5@	c #255139",
"6@	c #265839",
"7@	c #225A38",
"8@	c #424C39",
"9@	c #722F39",
"0@	c #492235",
"a@	c #3D2434",
"b@	c #AA463A",
"c@	c #C9503A",
"d@	c #A5574B",
"e@	c #425B59",
"f@	c #293D3B",
"g@	c #263735",
"h@	c #263536",
"i@	c #274434",
"j@	c #2C543B",
"k@	c #335349",
"l@	c #32404B",
"m@	c #323B4B",
"n@	c #2C3741",
"o@	c #223635",
"p@	c #483637",
"q@	c #7E2D39",
"r@	c #4A2335",
"s@	c #893B38",
"t@	c #984039",
"u@	c #7C3436",
"v@	c #2A2231",
"w@	c #263933",
"x@	c #243A33",
"y@	c #265031",
"z@	c #285C31",
"A@	c #2C5D3A",
"B@	c #325F46",
"C@	c #326047",
"D@	c #2D5F3C",
"E@	c #264D31",
"F@	c #3B2235",
"G@	c #622637",
"H@	c #462335",
"I@	c #262034",
"J@	c #261E33",
"K@	c #282F3B",
"L@	c #2C5251",
"M@	c #386758",
"N@	c #3D8059",
"O@	c #36804A",
"P@	c #2A7133",
"Q@	c #2B7135",
"R@	c #2E723C",
"S@	c #2F723D",
"T@	c #2F7648",
"U@	c #2C6347",
"V@	c #272435",
"W@	c #272034",
"X@	c #2A2F49",
"Y@	c #385978",
"Z@	c #558B87",
"`@	c #599386",
" #	c #47736B",
".#	c #272D33",
"+#	c #2A2F39",
"@#	c #33334C",
"##	c #363956",
"$#	c #364D6E",
"%#	c #314968",
"&#	c #272237",
"*#	c #2A2E49",
"=#	c #395879",
"-#	c #558B88",
";#	c #476F6A",
">#	c #313F46",
",#	c #2B253E",
"'#	c #334469",
")#	c #36527B",
"!#	c #314569",
"~#	c #28253C",
"{#	c #2E3952",
"]#	c #3B565A",
"^#	c #374C4F",
"/#	c #272136",
"(#	c #2B314C",
"_#	c #2C3755",
":#	c #2C3450",
"<#	c #261B2E",
"[#	c #261D30",
"}#	c #261C2E",
"            . . . . . . .                   ",
"        + @ # $ $ $ $ $ % & *               ",
"      = - ; > , ' ' ' ' ) ! ~ {             ",
"    ] ^ / ( _ : < < < < ) [ } | 1           ",
"  2 3 4 5 6 7 8 9 0 0 0 a b c d e f         ",
"  g h i j k l m n o o o p q r s t u         ",
"v w x y z A B C D E E E E F G H I J K       ",
"L M N O P Q R S T S S S S S U V W X Y       ",
"Z `  ...+.@.#.$.%.&.&.&.&.&.%.*.=.-.;.      ",
">.,.'.).!.~.{.].^././.(.(./.^._.:.<.[.      ",
"}.|.1.2.3.4.5.6.7.8.9.0.0.9.7.a.b.c.d.      ",
"e.f.g.h.i.j.j.j.j.k.l.m.n.o.k.p.q.r.s.      ",
"t.u.v.w.x.y.z.A.B.C.D.E.F.G.H.I.J.K.L.      ",
"M.N.O.P.Q.R.S.T.U.V.W.X.Y.Z.`. +.+++@+      ",
"#+$+%+&+*+=+-+;+>+,+'+)+!+~+{+]+^+/+        ",
"(+_+:+<+[+}+|+1+>+2+3+4+5+6+7+8+9+0+        ",
"a+b+c+d+e+f+g+h+i+j+>+k+l+m+n+o+p+q+        ",
"      r+s+t+u+v+w+x+x+y+z+A+B+C+D+          ",
"      E+F+G+H+I+J+K+L+M+N+O+P+Q+R+          ",
"    S+T+U+V+W+X+Y+Z+`+ @.@+@@@#@$@%@        ",
"    &@*@=@-@;@>@,@'@)@!@~@{@]@^@/@(@        ",
"  _@:@<@[@}@;@|@1@2@'@3@4@5@6@7@8@9@0@      ",
"  a@b@c@d@e@f@g@h@i@j@k@l@m@n@o@p@q@r@      ",
"    s@t@u@v@w@x@y@z@A@B@C@C@D@E@F@G@H@      ",
"    I@I@J@K@L@M@N@O@P@Q@R@S@T@U@V@W@        ",
"          X@Y@Z@`@ #.#+#@###$#%#&#          ",
"          *#=#-#;#>#    ,#'#)#!#&#          ",
"          ~#{#]#^#      /#(#_#:#            ",
"            <#            [#}#              ",
"                                            ",
"                                            ",
"                                            "};
