/* XPM */
static char * coin_01_xpm[] = {
"32 34 128 2",
"  	c None",
". 	c #997700",
"+ 	c #967300",
"@ 	c #BCAA8E",
"# 	c #FBFAF9",
"$ 	c #FAF9F7",
"% 	c #967200",
"& 	c #BBA98D",
"* 	c #FFFFFF",
"= 	c #987500",
"- 	c #DAD2C6",
"; 	c #F1EEEA",
"> 	c #F5EFD2",
", 	c #FFF171",
"' 	c #FFF175",
") 	c #977400",
"! 	c #E1DAD2",
"~ 	c #FFFBDE",
"{ 	c #FFEE00",
"] 	c #FFEF00",
"^ 	c #DCD4C8",
"/ 	c #E4DED7",
"( 	c #F6ECB3",
"_ 	c #FFF49B",
": 	c #FFF286",
"< 	c #FBE700",
"[ 	c #DEB000",
"} 	c #DEB200",
"| 	c #EFECE8",
"1 	c #FFF4A2",
"2 	c #F9E400",
"3 	c #CB8500",
"4 	c #CC8800",
"5 	c #EFE5AA",
"6 	c #FFF7BC",
"7 	c #FFF176",
"8 	c #F5DC00",
"9 	c #E7C400",
"0 	c #E5BF00",
"a 	c #D49900",
"b 	c #D59A00",
"c 	c #EFDD00",
"d 	c #EAC800",
"e 	c #CC8700",
"f 	c #CE8D00",
"g 	c #DDAB00",
"h 	c #DDAA00",
"i 	c #C1B299",
"j 	c #C1B29C",
"k 	c #F5E448",
"l 	c #ECCC00",
"m 	c #D29400",
"n 	c #D59B00",
"o 	c #E9C500",
"p 	c #E9C400",
"q 	c #FFF27B",
"r 	c #F0D300",
"s 	c #E2B500",
"t 	c #FFF000",
"u 	c #F9F5E2",
"v 	c #FFFCEC",
"w 	c #FFF170",
"x 	c #FAE500",
"y 	c #F7E000",
"z 	c #ECCA00",
"A 	c #DFAE00",
"B 	c #E4B900",
"C 	c #E6BF00",
"D 	c #967301",
"E 	c #F9E700",
"F 	c #E0B400",
"G 	c #D39700",
"H 	c #E7C000",
"I 	c #FBE800",
"J 	c #DBA600",
"K 	c #DCA800",
"L 	c #F9E800",
"M 	c #E1B700",
"N 	c #CD8B00",
"O 	c #F9E300",
"P 	c #FDEB00",
"Q 	c #E6BE00",
"R 	c #EAC600",
"S 	c #DCA900",
"T 	c #FFEF01",
"U 	c #EAC500",
"V 	c #DDA900",
"W 	c #FBF1C0",
"X 	c #F9F3EA",
"Y 	c #EDD6B3",
"Z 	c #FAE800",
"` 	c #FFF9D2",
" .	c #F0DEC4",
"..	c #C1A900",
"+.	c #F5E300",
"@.	c #FFF27E",
"#.	c #F0D675",
"$.	c #F8E583",
"%.	c #EFDABC",
"&.	c #EDD5B0",
"*.	c #EFDABD",
"=.	c #EFD368",
"-.	c #EFD000",
";.	c #F8E100",
">.	c #FFF6B4",
",.	c #FBF6F0",
"'.	c #FFF38F",
").	c #DCC700",
"!.	c #E4D000",
"~.	c #F6E400",
"{.	c #FFF396",
"].	c #FFFAD6",
"^.	c #FCF4D0",
"/.	c #E8CA99",
"(.	c #E9CB9B",
"_.	c #FFFAD7",
":.	c #FFF177",
"<.	c #977500",
"[.	c #E1CD00",
"}.	c #FFF061",
"|.	c #DAC500",
"1.	c #F1DF00",
"2.	c #FFF05B",
"3.	c #FFFCEA",
"4.	c #BBA100",
"5.	c #BCA300",
"6.	c #FBE900",
"7.	c #967400",
"                      . . . . . . . . . .                       ",
"                      + + + + + + + + + +                       ",
"            . . . . @ # $ $ $ $ $ $ $ $ # @ . . . .             ",
"            % % % % & * * * * * * * * * * & % % % %             ",
"        . = - ; ; ; > , ' ' ' ' ' ' ' ' , > ; ; ; - = .         ",
"        ) % ! * * * ~ { { ] ] ] ] ] ] { { ~ * * * ! % )         ",
"    . % ^ / ( _ _ _ : { < [ } } } } [ < { : _ _ _ ( / ^ % .     ",
"    . % | * 1 { { { { { 2 3 4 4 4 4 3 2 { { { { { 1 * | % .     ",
"    . + 5 6 7 { 8 9 9 9 0 a b b b b a 0 9 9 9 8 { 7 6 5 + .     ",
"    . + c { { { d e 4 4 f g h h h h g f 4 4 e d { { { c + .     ",
"    i j k { { { l m m m n o p p p p o n m m m l { { { k j i     ",
". + $ * q { { { r h h h s t ] ] ] ] t s h h h r { { { q * $ + . ",
". + u v w { x y z h A B C x 2 2 2 2 x C B A h z y x { w v u + . ",
". D E { { ] F 3 G h H t I J K K K K J I t H h G 3 F ] { { E D . ",
". + L { { ] M N b h H ] < K h h h h K O P Q h b N M ] { { L + . ",
". + L { { ] R h h h H ] < K h h h h h S S h h h h R ] { { L + . ",
". + L { { ] R h h h H ] < K h h h h h h h h h h h R ] { { L + . ",
". + L { { ] R h h h H ] < K h h h h h h h h h h h R ] { { L + . ",
". + L { { ] R h h h H ] < K h h h h h S S h h h h R ] { { L + . ",
". + L { { ] R h h h H ] < K h h h h K O P Q h h h R ] { { L + . ",
". + L { { T U K V h H t I J K K K K J I t H h V K U T { { L + . ",
". + L { { { W X Y h A B C x 2 2 2 2 x C B A h Y X W { { { L + . ",
". + Z ] { { ` *  .h h h s t ] ] ] ] t s h h h  .* ` { { ] Z + . ",
"    ....+.{ @._ #.h h h A p p p p p p A h h h #._ @.{ +.....    ",
"    . + c { { { r V h h h h h h h h h h h h h r { { { c + .     ",
"    . + c { { { $.%.%.%.&.V h h h h V &.*.=.-.;.{ { { c + .     ",
"    . + c { { { >.* * * ,.K h h h h K ,.* '.{ { { { { c + .     ",
"    . + ).!.~.{ {.].].].^./.(.(.(.(./.^._.:.{ { { ~.!.).+ .     ",
"        <.+ [.{ { { { { }.* * * * * * }.{ { { { { [.+ <.        ",
"        . = |.1.1.1.+.{ 2.v 3.3.3.3.v 2.{ +.1.1.1.|.= .         ",
"            + + + + 4.] { { { { { { { { ] 4.+ + + +             ",
"            . . . . 5.6.Z Z Z Z Z Z Z Z 6.5.. . . .             ",
"                      7.7.7.7.7.7.7.7.7.7.                      ",
"                      . . . . . . . . . .                       "};
