/* XPM */
static char * things_xpm[] = {
"34 32 400 2",
"  	c #B46A2E",
". 	c #C7762E",
"+ 	c #CF7B2D",
"@ 	c #D1813E",
"# 	c #D18E62",
"$ 	c #D09C80",
"% 	c #D0A28D",
"& 	c #CFA28D",
"* 	c #D0A28E",
"= 	c #D09E85",
"- 	c #D1916B",
"; 	c #D18345",
"> 	c #CF7C2F",
", 	c #CA782E",
"' 	c #BA6E2E",
") 	c #9D5B2F",
"! 	c #844C30",
"~ 	c #B56A2C",
"{ 	c #CE7D36",
"] 	c #D5874D",
"^ 	c #D28E62",
"/ 	c #CB9171",
"( 	c #C2927D",
"_ 	c #BD9382",
": 	c #BC9382",
"< 	c #BB9382",
"[ 	c #B89384",
"} 	c #B59386",
"| 	c #B69385",
"1 	c #BA9383",
"2 	c #BB9383",
"3 	c #B79384",
"4 	c #B49386",
"5 	c #B79385",
"6 	c #C0937F",
"7 	c #C99275",
"8 	c #D18F66",
"9 	c #D58953",
"0 	c #D1803B",
"a 	c #BD702D",
"b 	c #96572F",
"c 	c #764331",
"d 	c #AF662B",
"e 	c #CD7F3F",
"f 	c #D59267",
"g 	c #D09A7F",
"h 	c #C0917B",
"i 	c #A97A66",
"j 	c #9C6D59",
"k 	c #9B6C59",
"l 	c #996D5B",
"m 	c #8F6C60",
"n 	c #856C65",
"o 	c #896C63",
"p 	c #966D5D",
"q 	c #9D6D59",
"r 	c #986D5C",
"s 	c #8C6C62",
"t 	c #846C65",
"u 	c #9B6C58",
"v 	c #A47561",
"w 	c #BA8B76",
"x 	c #CD9A80",
"y 	c #D4956F",
"z 	c #D18449",
"A 	c #B96D2D",
"B 	c #8A4F2F",
"C 	c #5C3333",
"D 	c #AD652C",
"E 	c #CC7E3F",
"F 	c #CE8F68",
"G 	c #C3947F",
"H 	c #AD8575",
"I 	c #8F6453",
"J 	c #7F4D38",
"K 	c #824B32",
"L 	c #864D32",
"M 	c #874D31",
"N 	c #824D35",
"O 	c #704C42",
"P 	c #5D4C4B",
"Q 	c #664C47",
"R 	c #7C4D3A",
"S 	c #804D37",
"T 	c #6B4C44",
"U 	c #5C4C4B",
"V 	c #6A4C45",
"W 	c #864D31",
"X 	c #834C33",
"Y 	c #7E4B35",
"Z 	c #885C4A",
"` 	c #A67E6E",
" .	c #BF937F",
"..	c #CD9170",
"+.	c #CE8249",
"@.	c #B76C2D",
"#.	c #834A30",
"$.	c #492734",
"%.	c #AD662E",
"&.	c #C97A37",
"*.	c #C17D50",
"=.	c #AA7860",
"-.	c #906A5D",
";.	c #75554C",
">.	c #6D483D",
",.	c #794833",
"'.	c #83492C",
").	c #85492A",
"!.	c #7F4930",
"~.	c #6C483E",
"{.	c #574747",
"].	c #614843",
"^.	c #784936",
"/.	c #83492B",
"(.	c #84492A",
"_.	c #7D4932",
":.	c #674840",
"<.	c #564748",
"[.	c #664841",
"}.	c #7C4933",
"|.	c #84492B",
"1.	c #7D4831",
"2.	c #6F473A",
"3.	c #705048",
"4.	c #896559",
"5.	c #BC7D56",
"6.	c #CA7C3D",
"7.	c #B86C2E",
"8.	c #824B31",
"9.	c #472634",
"0.	c #A7622F",
"a.	c #BF712F",
"b.	c #B16933",
"c.	c #92593A",
"d.	c #764F43",
"e.	c #614C49",
"f.	c #624B47",
"g.	c #774B3B",
"h.	c #844C31",
"i.	c #874C2E",
"j.	c #814C34",
"k.	c #6F4B40",
"l.	c #5B4A4A",
"m.	c #644B46",
"n.	c #7B4C39",
"o.	c #854C30",
"p.	c #864C2F",
"q.	c #7F4C36",
"r.	c #6A4B43",
"s.	c #5A4A4A",
"t.	c #694B44",
"u.	c #7E4C36",
"v.	c #7C4C38",
"w.	c #674B44",
"x.	c #5E4B4A",
"y.	c #704E45",
"z.	c #8B553C",
"A.	c #AA6535",
"B.	c #BE712F",
"C.	c #B0682F",
"D.	c #7F4932",
"E.	c #482734",
"F.	c #925531",
"G.	c #A7612E",
"H.	c #9E5B2B",
"I.	c #874D2E",
"J.	c #70483B",
"K.	c #5B4948",
"L.	c #5F4A48",
"M.	c #764B3C",
"N.	c #7B4C38",
"O.	c #654B46",
"P.	c #594A4A",
"Q.	c #6A483F",
"R.	c #824B30",
"S.	c #99572B",
"T.	c #A7612D",
"U.	c #9A5A30",
"V.	c #714032",
"W.	c #794531",
"X.	c #8B5030",
"Y.	c #8D502F",
"Z.	c #844D32",
"`.	c #734B3E",
" +	c #5E4A49",
".+	c #604B48",
"++	c #774B3C",
"@+	c #654B45",
"#+	c #6D4B41",
"$+	c #8B4F2F",
"%+	c #8D5130",
"&+	c #7F4931",
"*+	c #613633",
"=+	c #462534",
"-+	c #6F3F32",
";+	c #804930",
">+	c #834C32",
",+	c #744B3E",
"'+	c #6E4B41",
")+	c #804C34",
"!+	c #754231",
"~+	c #5B3233",
"{+	c #452534",
"]+	c #703F32",
"^+	c #824A30",
"/+	c #874C2F",
"(+	c #844B30",
"_+	c #874D2F",
":+	c #7B4B38",
"<+	c #654A45",
"[+	c #5A494A",
"}+	c #6D4A41",
"|+	c #804B34",
"1+	c #774331",
"2+	c #7B4A38",
"3+	c #634745",
"4+	c #564449",
"5+	c #6A4540",
"6+	c #7E4633",
"7+	c #85492E",
"8+	c #844A30",
"9+	c #7F5139",
"0+	c #725B46",
"a+	c #6F624C",
"b+	c #7E6445",
"c+	c #8B6239",
"d+	c #8D5C33",
"e+	c #865031",
"f+	c #5C3233",
"g+	c #854A2F",
"h+	c #8C653B",
"i+	c #98884B",
"j+	c #A39C54",
"k+	c #ACA251",
"l+	c #AE9C4A",
"m+	c #A38641",
"n+	c #8E6236",
"o+	c #764231",
"p+	c #5B3033",
"q+	c #84482F",
"r+	c #864C30",
"s+	c #98743C",
"t+	c #B7A54E",
"u+	c #CAC159",
"v+	c #D1C75A",
"w+	c #CCBF56",
"x+	c #B7A24A",
"y+	c #966F3A",
"z+	c #764131",
"A+	c #5A2E32",
"B+	c #84492F",
"C+	c #9C7239",
"D+	c #C0A147",
"E+	c #D7BB50",
"F+	c #DCC153",
"G+	c #D5BA50",
"H+	c #BE9D46",
"I+	c #986D38",
"J+	c #844A2F",
"K+	c #9B6333",
"L+	c #BD8439",
"M+	c #D2973D",
"N+	c #D79C3E",
"O+	c #D0963D",
"P+	c #BA8238",
"Q+	c #976033",
"R+	c #5A3033",
"S+	c #5E4B49",
"T+	c #945630",
"U+	c #AC662F",
"V+	c #BC712F",
"W+	c #C0732F",
"X+	c #BB702F",
"Y+	c #AA652F",
"Z+	c #915430",
"`+	c #874D30",
" @	c #8B4E30",
".@	c #8D4F30",
"+@	c #8E4F30",
"@@	c #8D4E30",
"#@	c #734A3C",
"$@	c #5D4846",
"%@	c #604845",
"&@	c #764A3A",
"*@	c #7C4731",
"=@	c #693B32",
"-@	c #583033",
";@	c #562F34",
">@	c #5F3533",
",@	c #704032",
"'@	c #7E4831",
")@	c #5D3333",
"!@	c #834B31",
"~@	c #724638",
"{@	c #5B3F3F",
"]@	c #5D3F3E",
"^@	c #764737",
"/@	c #5A4B4A",
"(@	c #7A4531",
"_@	c #5E3433",
":@	c #532D33",
"<@	c #663932",
"[@	c #7F4830",
"}@	c #834B30",
"|@	c #724133",
"1@	c #593436",
"2@	c #5B3536",
"3@	c #754333",
"4@	c #7F4B35",
"5@	c #6A4A42",
"6@	c #5A4949",
"7@	c #694A43",
"8@	c #7E4B36",
"9@	c #673932",
"0@	c #7B4631",
"a@	c #714031",
"b@	c #5B3133",
"c@	c #6F4B41",
"d@	c #5B4B4A",
"e@	c #7E4A34",
"f@	c #69453D",
"g@	c #584142",
"h@	c #68443E",
"i@	c #864D30",
"j@	c #542E33",
"k@	c #6B3C32",
"l@	c #814930",
"m@	c #5B4A49",
"n@	c #644A45",
"o@	c #7B4B39",
"p@	c #7E4832",
"q@	c #673D36",
"r@	c #553539",
"s@	c #663D36",
"t@	c #7D4832",
"u@	c #724032",
"v@	c #814B33",
"w@	c #6E483D",
"x@	c #5A4444",
"y@	c #634641",
"z@	c #7B4A37",
"A@	c #542D33",
"B@	c #653932",
"C@	c #7E4731",
"D@	c #814A31",
"E@	c #6D4237",
"F@	c #57393B",
"G@	c #613D39",
"H@	c #7A4734",
"I@	c #653832",
"J@	c #7D4731",
"K@	c #7F4831",
"L@	c #552E33",
"M@	c #573033",
"N@	c #6E3E32",
"O@	c #7C4631",
"P@	c #673A33",
"Q@	c #522E34",
"R@	c #5C3334",
"S@	c #724132",
"T@	c #512C33",
"U@	c #603533",
"V@	c #734131",
"W@	c #522C33",
"X@	c #784431",
"Y@	c #593133",
"Z@	c #5A3233",
"`@	c #643832",
" #	c #4D2A34",
".#	c #4F2A34",
"+#	c #633732",
"@#	c #572F33",
"##	c #4A2733",
"$#	c #4F2A33",
"%#	c #4B2934",
"&#	c #633733",
"*#	c #5D3433",
"=#	c #4F2B34",
"-#	c #452434",
";#	c #4C2934",
">#	c #4D2934",
",#	c #4A2834",
"'#	c #522D33",
")#	c #502B34",
"!#	c #4B2834",
"~#	c #462634",
"{#	c #442434",
"]#	c #422334",
"^#	c #402134",
"/#	c #3E2034",
"(#	c #3C1F34",
"_#	c #3D2034",
":#	c #3F2134",
"<#	c #3B1F34",
"[#	c #391D34",
"}#	c #623633",
"|#	c #412234",
"1#	c #432334",
"2#	c #432434",
"3#	c #402234",
"  . + @ # $ % % % % % & & & & % % & & & & & % % % * = - ; > , ' ) ! ",
"~ { ] ^ / ( _ : : : < [ } | 1 : : 2 3 4 5 2 : : : : 6 7 8 9 0 a b c ",
"d e f g h i j k j j l m n o p j q r s t s r j j k u v w x y z A B C ",
"D E F G H I J K L M N O P Q R L M S T U V J W W X Y Z `  ...+.@.#.$.",
"%.&.*.=.-.;.>.,.'.).!.~.{.].^./.(._.:.<.[.}.|.|.1.2.3.4.v 5.6.7.8.9.",
"0.a.b.c.d.e.f.g.h.i.j.k.l.m.n.o.p.q.r.s.t.u.p.o.v.w.x.y.z.A.B.C.D.E.",
"F.G.H.I.J.K.L.M.h.i.j.k.l.m.n.o.p.q.r.s.t.u.p.o.N.O.P.Q.R.S.T.U.V.9.",
"W.X.Y.Z.`. +.+++h.i.j.k.l.m.n.o.p.q.r.s.t.u.p.o.N.@+l.#+j.$+%+&+*+=+",
"-+;+p.>+,+ +.+++h.i.j.k.l.m.n.o.p.q.r.s.t.u.p.o.N.@+l.'+)+p.#.!+~+{+",
"]+^+/+>+,+ +.+++h.i.j.k.l.m.n.o.p.q.r.s.t.u.p.o.N.@+l.'+j.p.(+c C {+",
"V.^+_+>+,+ +.+++h.i.j.k.l.m.n.o.p.q.r.s.t.u.p.o.N.@+l.'+j._+(+c C {+",
"V.^+_+>+,+ +.+++h.i.j.k.l.m.n.o.p.q.r.s.t.u.p.o.N.@+l.'+j._+(+c C {+",
"V.^+_+>+,+ +.+++h.i.j.k.l.m.n.o.p.q.r.s.t.u.p.o.:+<+[+}+|+p.(+1+C {+",
"V.^+_+>+,+ +.+++h.i.j.k.l.m.n.o.p.q.r.s.t.u.p.o.2+3+4+5+6+7+8+1+C {+",
"V.^+_+>+,+ +.+++h.i.j.k.l.m.n.o.p.q.r.s.t.u.p.o.9+0+a+b+c+d+e+c f+{+",
"V.^+_+>+,+ +.+++h.i.j.k.l.m.n.o.p.q.r.s.t.u.g+o.h+i+j+k+l+m+n+o+p+{+",
"V.^+_+>+,+ +.+++h.i.j.k.l.m.n.o.p.q.r.s.t.u.q+r+s+t+u+v+w+x+y+z+A+{+",
"V.^+_+>+,+ +.+++h.i.j.k.l.m.n.o.p.q.r.s.t.u.B+r+C+D+E+F+G+H+I+z+A+{+",
"V.^+_+>+,+ +.+++h.i.j.k.l.m.n.o.p.q.r.s.t.u.J+r+K+L+M+N+O+P+Q+o+R+{+",
"V.^+_+>+,+S+.+++h.i.j.k.l.m.n.o.p.q.r.s.t.u.(+o.T+U+V+W+X+Y+Z+c ~+{+",
"V.^+_+>+,+S+.+++h.i.j.k.l.m.n.o.p.q.r.s.t.u.o.o.`+ @.@+@@@ @o.c C {+",
"V.^+_+>+#@$@%@&@h.i.j.k.l.m.n.o.p.q.r.s.t.u.r+o.*@=@-@;@>@,@'@1+)@{+",
"V.^+_+!@~@{@]@^@! /+j.k.l.m.n.o.p.q.r./@t.u.r+o.(@_@$.:@<@c [@1+)@{+",
"V.^+`+}@|@1@2@3@(+_+j.k.l.m.n.o.p.4@5@6@7@8@r+o.(@*+:@9@0@(+}@1+C {+",
"V.^+`+}@a@-@b@!+(+_+j.c@d@O.n.o.p.e@f@g@h@e@i@o.(@*+j@k@l@`+! c C {+",
"V.^+`+}@V.-@~+!+(+_+j.k.m@n@o@o.p.p@q@r@s@t@i@o.(@*+j@k@;+`+! c C {+",
"V.}@`+}@u@-@~+!+! _+v@w@x@y@z@i@_+'@9@A@B@C@`+i@0@*+j@k@l@`+o.1+C {+",
"V.^+`+}@u@-@~+!+(+`+D@E@F@G@H@r+`+'@9@:@I@J@`+i@0@*+j@k@;+`+o.1+C {+",
"k@(@K@0@k@L@M@N@O@'@W.P@Q@R@S@J@'@c *+T@U@c '@J@V@)@W@B@X@'@*@]+Y@{+",
"Z@`@9@`@Z@ #.#C I@9@+#@###$#_@I@<@*+:@$.:@*+<@<@>@W@%#M@&#9@I@*#=#-#",
"$.;#>#;#$.=+=+,#;#>#;#;#>#=#'#:@j@'#)# #;#;#>#;#!#9.=+E.;#>#;#,#~#{#",
"]#^#/#(#_#:#:#_#<#[#{#M@}#`@+#+#+#+#`@+#~+$.(#/#|#1#2#]#|#3#3#|#1#{#"};
