/* XPM */
static char * TX Struct_xpm[] = {
"52 45 279 2",
"  	c None",
". 	c #72695D",
"+ 	c #848276",
"@ 	c #6A5849",
"# 	c #746B5F",
"$ 	c #868579",
"% 	c #87867A",
"& 	c #695748",
"* 	c #726A5E",
"= 	c #86827C",
"- 	c #848179",
"; 	c #838078",
"> 	c #837F78",
", 	c #838079",
"' 	c #665446",
") 	c #827F77",
"! 	c #827F78",
"~ 	c #69584A",
"{ 	c #828078",
"] 	c #817F77",
"^ 	c #88867F",
"/ 	c #60564E",
"( 	c #6F6B61",
"_ 	c #6F6A61",
": 	c #6E6960",
"< 	c #6D695F",
"[ 	c #6D685F",
"} 	c #5E4939",
"| 	c #6C685E",
"1 	c #6B675D",
"2 	c #6B665D",
"3 	c #645243",
"4 	c #6A665C",
"5 	c #60574F",
"6 	c #655D55",
"7 	c #6C685F",
"8 	c #6A655C",
"9 	c #5E4B3C",
"0 	c #60564D",
"a 	c #635B52",
"b 	c #6D675F",
"c 	c #6C675E",
"d 	c #5E4839",
"e 	c #6A645C",
"f 	c #69645B",
"g 	c #69655C",
"h 	c #5E493B",
"i 	c #69655B",
"j 	c #5F554D",
"k 	c #615850",
"l 	c #6A655D",
"m 	c #5D4738",
"n 	c #69635B",
"o 	c #68635A",
"p 	c #5D493A",
"q 	c #5E544C",
"r 	c #686259",
"s 	c #69635A",
"t 	c #6A645B",
"u 	c #69645C",
"v 	c #68625A",
"w 	c #573E2F",
"x 	c #68635B",
"y 	c #676259",
"z 	c #676159",
"A 	c #5D524A",
"B 	c #5D524B",
"C 	c #5F564E",
"D 	c #666058",
"E 	c #666057",
"F 	c #666158",
"G 	c #676158",
"H 	c #5C4637",
"I 	c #67635A",
"J 	c #5D514B",
"K 	c #5E534B",
"L 	c #655E56",
"M 	c #655F56",
"N 	c #573D2E",
"O 	c #67625A",
"P 	c #513A2E",
"Q 	c #523C30",
"R 	c #533E31",
"S 	c #554032",
"T 	c #564132",
"U 	c #553F31",
"V 	c #553D2F",
"W 	c #543C2D",
"X 	c #543A2B",
"Y 	c #5C5044",
"Z 	c #543A2C",
"` 	c #543B2C",
" .	c #533727",
"..	c #4E270F",
"+.	c #48230F",
"@.	c #523627",
"#.	c #5A5045",
"$.	c #5B5045",
"%.	c #5B5046",
"&.	c #5C5247",
"*.	c #5D5348",
"=.	c #564134",
"-.	c #4A2919",
";.	c #534034",
">.	c #5A5046",
",.	c #5B5047",
"'.	c #5C5147",
").	c #553E30",
"!.	c #5A4F45",
"~.	c #5B4F44",
"{.	c #5B4F49",
"].	c #5B5049",
"^.	c #645C54",
"/.	c #655E55",
"(.	c #665F57",
"_.	c #512F1D",
":.	c #502F1E",
"<.	c #655F57",
"[.	c #544136",
"}.	c #554238",
"|.	c #554239",
"1.	c #533F33",
"2.	c #574032",
"3.	c #5E5145",
"4.	c #5F5247",
"5.	c #5C493C",
"6.	c #594234",
"7.	c #543C2F",
"8.	c #5B483B",
"9.	c #61564C",
"0.	c #584132",
"a.	c #5B4A3E",
"b.	c #5A4638",
"c.	c #553B2D",
"d.	c #533729",
"e.	c #5D534B",
"f.	c #5E544B",
"g.	c #59493F",
"h.	c #6B665E",
"i.	c #573D2D",
"j.	c #533828",
"k.	c #5D4D41",
"l.	c #5C5149",
"m.	c #5C514A",
"n.	c #5D534C",
"o.	c #5B4F46",
"p.	c #593F2F",
"q.	c #533626",
"r.	c #5E4F44",
"s.	c #5C5049",
"t.	c #594C44",
"u.	c #573C2C",
"v.	c #533627",
"w.	c #5F5147",
"x.	c #584C44",
"y.	c #676058",
"z.	c #583E2E",
"A.	c #583E2D",
"B.	c #5B4B3F",
"C.	c #56463E",
"D.	c #57473F",
"E.	c #57483F",
"F.	c #55443C",
"G.	c #594A42",
"H.	c #61554B",
"I.	c #5E4F45",
"J.	c #5B493E",
"K.	c #58463C",
"L.	c #5E5148",
"M.	c #61574E",
"N.	c #553C2D",
"O.	c #5A473B",
"P.	c #5E5045",
"Q.	c #5D4E43",
"R.	c #59473B",
"S.	c #5E544D",
"T.	c #605750",
"U.	c #625A52",
"V.	c #6A665D",
"W.	c #513120",
"X.	c #553929",
"Y.	c #6E6A61",
"Z.	c #6C665E",
"`.	c #5A4F49",
" +	c #5C514B",
".+	c #5E544E",
"++	c #5F554F",
"@+	c #60564F",
"#+	c #655E57",
"$+	c #665F58",
"%+	c #67615A",
"&+	c #533321",
"*+	c #553A29",
"=+	c #5F564F",
"-+	c #605650",
";+	c #533423",
">+	c #553A2A",
",+	c #5A4E48",
"'+	c #5E534D",
")+	c #5F554E",
"!+	c #543523",
"~+	c #573B2A",
"{+	c #574841",
"]+	c #584A43",
"^+	c #594C45",
"/+	c #594B44",
"(+	c #5A4D46",
"_+	c #5B4F48",
":+	c #62584F",
"<+	c #62564E",
"[+	c #563927",
"}+	c #62574F",
"|+	c #60574E",
"1+	c #635B53",
"2+	c #625950",
"3+	c #61584E",
"4+	c #544239",
"5+	c #5F544D",
"6+	c #665E56",
"7+	c #563A29",
"8+	c #6F6960",
"9+	c #625449",
"0+	c #5D524C",
"a+	c #635A53",
"b+	c #6B6761",
"c+	c #69655F",
"d+	c #5F5148",
"e+	c #584B43",
"f+	c #563C2C",
"g+	c #573A29",
"h+	c #5F5248",
"i+	c #55433A",
"j+	c #68615A",
"k+	c #573B29",
"l+	c #594C46",
"m+	c #594D46",
"n+	c #544138",
"o+	c #52311F",
"p+	c #563A28",
"q+	c #6A655E",
"r+	c #68635D",
"s+	c #5C4C42",
"t+	c #5B4C43",
"u+	c #5C4E44",
"v+	c #5D4F46",
"w+	c #5D5046",
"x+	c #5E4E44",
"y+	c #726960",
"z+	c #6A6156",
"A+	c #6A6256",
"B+	c #6B6257",
"C+	c #635A51",
"D+	c #645C53",
"E+	c #665E55",
"F+	c #645A50",
"G+	c #7E7A71",
"H+	c #767469",
"I+	c #665D54",
"J+	c #686057",
"K+	c #655B52",
"L+	c #807C73",
"M+	c #7A786E",
"N+	c #79776C",
"O+	c #5F544B",
"P+	c #60554C",
"Q+	c #625951",
"R+	c #635A52",
"S+	c #645B53",
"T+	c #726B63",
"U+	c #6F6A62",
"V+	c #6D6860",
"W+	c #5A4E45",
"X+	c #5C5148",
"Y+	c #5E564D",
"Z+	c #60584F",
"`+	c #605950",
" @	c #6C655D",
".@	c #4F2811",
"+@	c #4F2810",
"                                                                                                        ",
"                                                                                                        ",
"                                                                                                        ",
"                                                                                                        ",
"        . + + + + + + + + + + + + @ + + + + + + + + + + + + + + + + + + @ + + + + + + + + + + + + #     ",
"        # $ $ $ $ $ $ $ $ $ $ $ % & $ $ $ $ $ $ $ $ $ $ $ $ $ $ $ $ $ $ & % $ $ $ $ $ $ $ $ $ $ $ *     ",
"        # $ $ $ = - - ; ; ; > > , ' ; ) ) ) ) ) ) ) ) ) ) ) ) ) ) ) ) ! ~ { ) ) ) ) ] ] ] ^ $ $ $ *     ",
"                / ( _ : < [ [ [ [ } | 1 1 1 1 1 1 1 1 1 1 1 1 1 1 2 2 2 3 2 2 2 2 2 4 4 4 4             ",
"                5 6 : < [ | | | 7 } 1 4 4 4 4 4 4 4 4 4 4 4 4 4 8 4 4 4 9 4 4 4 4 4 4 4 4 4             ",
"                0 a b | c 2 2 2 c d 2 8 8 8 8 8 e e e f f f f f f f f g h 8 i i i i i i i i             ",
"                j k 8 2 8 8 8 8 l m i f f f f f n n n n n n n n n n o n p n n n n o o o o o             ",
"                q q r s s t f f u m o v v v v v v v v v v v v v v v v v w x v v v y y y z z             ",
"                A B C D E F G r o H y y y v y y y y y y y y y y y y y y w I y z z z z z z z             ",
"                J A K L L M D z v N O O O O O O O O O O O O O O O O O O N v O O O O O O O O             ",
"                P Q R S T U V W X Y Z `  ...........+.+...........@.` Z Y X Z Z Z Z Z Z Z Z             ",
"                #.$.%.&.&.&.&.&.&.*.*.=.-.                        -.;.*.*.*.*.*.*.*.*.*.*.*.            ",
"                >.,.,.'.&.&.&.&.&.*.Q                                 ).*.*.*.*.*.*.*.*.*.*.            ",
"                !.>.>.'.&.&.&.&.&.~.                                    Y *.*.*.*.*.*.*.*.*.            ",
"                {.{.].].^./.(.D v _.                                    :.x <.<.<.<.<.<.<.<.            ",
"                [.}.|.1.2.3.4.5.6.                                        7.8.9.9.0.a.b.c.d.            ",
"                A A e.f.g.x n n h.i.                                    j.u v v v k.v v v v             ",
"                l.m.A n.o.z z z e p.                                    q.O <.<.<.r.<.<.<.<.            ",
"                s.m.e.q t.z z z f u.                                    v.O <.<.<.w.<.<.<.<.            ",
"                s.m.e.q x.y.z z n z.                                    A.O <.<.<.B.<.<.<.<.            ",
"                C.C.D.E.F.G.H.I.J.                                        K.L.M.M.N.O.P.Q.R.            ",
"                B e.S.C T.U.g g V.W.                                    X.Y.[ [ [ Z.c [ [ [             ",
"                `.{. +.+++@+#+$+%+&+                                    *+v <.<.<.<.<.<.<.<.            ",
"                `.].B .+=+-+#+$+%+;+                                    >+o <.<.<.<.<.<.<.<.            ",
"                ,+]. +'+)+@+-+$+%+!+                                    ~+o <.<.<.<.<.<.<.<.            ",
"                {+]+^+]+/+(+_+:+<+_.                                    [+}+|+1+2+3+:+a 2+2+            ",
"                B B B B 4+S.5+6+e u.                                    7+8+: _ 8+9+8+_ 8+8+            ",
"                ,+,+,+,+F.0+0+a+%+u.                                    7+b+c+c+c+d+c+c+c+c+            ",
"                ,+,+,+,+e+0+0+0+%+f+                                    g+b+c+c+c+h+c+c+c+c+            ",
"                ,+,+,+,+i+B 0+0+j+;+                                    k+b+c+c+c+d+c+c+c+c+            ",
"                l+l+l+m+n+_+{.{.-+o+                                    p+q+r+r+r+s+r+r+r+r+            ",
"                t+u+v+v+w+v+v+v+v+x+                                    y+z+A+A+A+B+A+A+A+A+            ",
"                C+D+E+E+E+E+E+E+E+F+                                    G+H+H+H+H+H+H+H+H+H+            ",
"                I+E+J+J+J+J+J+J+J+K+                                    L+M+M+M+N+N+N+N+N+N+            ",
"                O+P+Q+R+S+D+D+D+D+M.                                    T+U+U+U+V+V+V+V+V+V+            ",
"                W+X+Y+|+Z+`+`+`+`+f.                                     @O O O O O O O O O             ",
"                  .@.@.@.@.@.@.@.@.@                                    ..+@+@+@+@+@+@+@+@              ",
"                                                                                                        ",
"                                                                                                        ",
"                                                                                                        ",
"                                                                                                        "};
