/* XPM */
static char * TX Tileset Grass_resized_xpm[] = {
"34 34 8 1",
" 	c #72751B",
".	c #7F8226",
"+	c #787B21",
"@	c #656C17",
"#	c #B3B0A9",
"$	c #A2814F",
"%	c #636917",
"&	c #9CA8AD",
"                                  ",
"                                  ",
"                                  ",
"                                  ",
"                                  ",
"                                  ",
"                                  ",
"                                  ",
"                                  ",
"                              .   ",
".+                     +..   .    ",
".                       .++ ..    ",
"                        @++ ##    ",
"                         @+#$$#   ",
"                          @%##%   ",
"                            %%    ",
"                                  ",
"                                  ",
"            +..                   ",
"           ++.                    ",
"           ++@                    ",
"      +.  &&@                     ",
"      @.+&$$&.                    ",
"       ++%&&%@                    ",
"       @+@%%@                     ",
"        @@++@                     ",
"          +@                      ",
"                                  ",
"                                  ",
"                                  ",
"                                  ",
"                                  ",
"                                  ",
"                                  "};
