/* XPM */
static char * TX_Tileset_Wall_resized_xpm[] = {
"40 34 284 2",
"  	c #584134",
". 	c #5D5046",
"+ 	c #5E5349",
"@ 	c #5D5147",
"# 	c #533D2F",
"$ 	c #5D5349",
"% 	c #5C5247",
"& 	c #543728",
"* 	c #62584D",
"= 	c #62584C",
"- 	c #62594D",
"; 	c #523E30",
"> 	c #5D5348",
", 	c #543828",
"' 	c #523E31",
") 	c #594235",
"! 	c #61574C",
"~ 	c #60564D",
"{ 	c #5F544B",
"] 	c #554134",
"^ 	c #61574E",
"/ 	c #5F564C",
"( 	c #60574D",
"_ 	c #5F554B",
": 	c #635A4F",
"< 	c #6E685E",
"[ 	c #676059",
"} 	c #666059",
"| 	c #666158",
"1 	c #666058",
"2 	c #665E57",
"3 	c #5E4D41",
"4 	c #68625A",
"5 	c #67625A",
"6 	c #543727",
"7 	c #635B51",
"8 	c #686056",
"9 	c #5A4538",
"0 	c #5A4134",
"a 	c #5B4639",
"b 	c #5D4B3E",
"c 	c #5D4A3E",
"d 	c #5B4537",
"e 	c #5E5146",
"f 	c #60574E",
"g 	c #5F5247",
"h 	c #5E4B3E",
"i 	c #5A4335",
"j 	c #5B473B",
"k 	c #574033",
"l 	c #563E32",
"m 	c #5F5145",
"n 	c #635C53",
"o 	c #5A4639",
"p 	c #6D655B",
"q 	c #6F685E",
"r 	c #6C665C",
"s 	c #6A655B",
"t 	c #6A665C",
"u 	c #6A645B",
"v 	c #6A635A",
"w 	c #686158",
"x 	c #583E2F",
"y 	c #5D4D42",
"z 	c #5D4E43",
"A 	c #533728",
"B 	c #5F5246",
"C 	c #635B52",
"D 	c #635C52",
"E 	c #594335",
"F 	c #6E675D",
"G 	c #676159",
"H 	c #665F57",
"I 	c #594234",
"J 	c #61564D",
"K 	c #615851",
"L 	c #605650",
"M 	c #615951",
"N 	c #563D30",
"O 	c #605448",
"P 	c #62594E",
"Q 	c #635A50",
"R 	c #5B4435",
"S 	c #5B473A",
"T 	c #6C665D",
"U 	c #666057",
"V 	c #5C4C3F",
"W 	c #615750",
"X 	c #625A52",
"Y 	c #6B655C",
"Z 	c #584235",
"` 	c #67615A",
" .	c #676058",
"..	c #605750",
"+.	c #645C53",
"@.	c #563E31",
"#.	c #5C4538",
"$.	c #5D4A3D",
"%.	c #5C483C",
"&.	c #5E4F44",
"*.	c #61554B",
"=.	c #5F4F44",
"-.	c #5D4C41",
";.	c #5E4D42",
">.	c #60544A",
",.	c #605349",
"'.	c #61584F",
").	c #5E534A",
"!.	c #60564C",
"~.	c #5F544C",
"{.	c #5E544B",
"].	c #5F554C",
"^.	c #5C4A3E",
"/.	c #574135",
"(.	c #51301F",
"_.	c #605549",
":.	c #62594F",
"<.	c #635B53",
"[.	c #6C6258",
"}.	c #726C63",
"|.	c #736C63",
"1.	c #736D64",
"2.	c #746E65",
"3.	c #6D6359",
"4.	c #5E4E42",
"5.	c #686157",
"6.	c #696259",
"7.	c #686259",
"8.	c #69635A",
"9.	c #675F56",
"0.	c #696158",
"a.	c #573E31",
"b.	c #645B52",
"c.	c #686258",
"d.	c #6F675D",
"e.	c #6F6A61",
"f.	c #6E6960",
"g.	c #696056",
"h.	c #5E4D43",
"i.	c #665F58",
"j.	c #6C665E",
"k.	c #573B2B",
"l.	c #583D2D",
"m.	c #5B4233",
"n.	c #5D4435",
"o.	c #6E665C",
"p.	c #696157",
"q.	c #5F4F45",
"r.	c #6D675F",
"s.	c #55392B",
"t.	c #645C52",
"u.	c #6D665C",
"v.	c #6E6961",
"w.	c #5F5046",
"x.	c #6E695F",
"y.	c #767267",
"z.	c #6A6259",
"A.	c #675D52",
"B.	c #676057",
"C.	c #7D7C71",
"D.	c #6A6056",
"E.	c #675E55",
"F.	c #61554C",
"G.	c #6A6258",
"H.	c #594336",
"I.	c #685E53",
"J.	c #6B655B",
"K.	c #7D7B6F",
"L.	c #685D52",
"M.	c #615348",
"N.	c #62554A",
"O.	c #64584D",
"P.	c #64574D",
"Q.	c #655B50",
"R.	c #655B51",
"S.	c #665C52",
"T.	c #5B4A3E",
"U.	c #5F5248",
"V.	c #625951",
"W.	c #62574F",
"X.	c #62574E",
"Y.	c #625850",
"Z.	c #605248",
"`.	c #5F4F46",
" +	c #605147",
".+	c #61534A",
"++	c #5F5147",
"@+	c #5C4B41",
"#+	c #5C493E",
"$+	c #685F54",
"%+	c #676157",
"&+	c #655F56",
"*+	c #767469",
"=+	c #7C7B6F",
"-+	c #64554A",
";+	c #5D4B40",
">+	c #5F5146",
",+	c #605247",
"'+	c #62574D",
")+	c #676158",
"!+	c #676056",
"~+	c #675E54",
"{+	c #5A4234",
"]+	c #665D53",
"^+	c #5E4B3F",
"/+	c #655D54",
"(+	c #686156",
"_+	c #716E63",
":+	c #6D655C",
"<+	c #665E56",
"[+	c #5B483C",
"}+	c #747267",
"|+	c #5C473A",
"1+	c #655E57",
"2+	c #665F56",
"3+	c #716E64",
"4+	c #6A655C",
"5+	c #747167",
"6+	c #6E6A61",
"7+	c #5D483C",
"8+	c #655D56",
"9+	c #665F59",
"0+	c #665E55",
"a+	c #757368",
"b+	c #767368",
"c+	c #675A4F",
"d+	c #605249",
"e+	c #60534A",
"f+	c #655C55",
"g+	c #61544C",
"h+	c #583F31",
"i+	c #61544B",
"j+	c #61534B",
"k+	c #65584F",
"l+	c #615145",
"m+	c #6B665C",
"n+	c #7E7C71",
"o+	c #7B776D",
"p+	c #6D6257",
"q+	c #6B5F54",
"r+	c #695E52",
"s+	c #685C50",
"t+	c #5F4D42",
"u+	c #695D51",
"v+	c #736E63",
"w+	c #817F76",
"x+	c #7A766C",
"y+	c #79766C",
"z+	c #77756A",
"A+	c #675A4D",
"B+	c #747166",
"C+	c #665648",
"D+	c #79766B",
"E+	c #79756B",
"F+	c #76756A",
"G+	c #6A5E50",
"H+	c #685A4C",
"I+	c #7C7A70",
"J+	c #7C7971",
"K+	c #7D7B70",
"L+	c #7D7C70",
"M+	c #6C6153",
"N+	c #7B786C",
"O+	c #695C4E",
"P+	c #7F7D74",
"Q+	c #7A756E",
"R+	c #645E56",
"S+	c #747066",
"T+	c #695D4F",
"U+	c #726E63",
"V+	c #685A4B",
"W+	c #737065",
"X+	c #757168",
"Y+	c #76726A",
"Z+	c #757067",
"`+	c #655749",
" @	c #665F55",
".@	c #655547",
"+@	c #716C62",
"@@	c #62584F",
"#@	c #635950",
"$@	c #553B2E",
"%@	c #61564C",
"&@	c #533626",
"  . + + + + + + + @ # $ % % % % % + + + + + + + + + + + + + + + + @ & * = = = - ",
"  . + + + + + + + @ ; > % % % % % + + > + + + + + + + + + + + + + @ , - = = = - ",
"  . + + + + + + + @ ' $ % % % % % + + % % + + + + + + + + + + + + @ , - = = = - ",
") ! ~ ~ ~ ~ ~ ~ ~ { ] ^ / / / / / ( ( / ~ ( ( ( ( ( ( ( ( ( ( ( ( _ & * = = = : ",
"  < [ } } } | 1 } 2 3 4 5 5 5 5 5 5 5 5 5 5 4 5 5 5 5 5 5 5 5 5 4 1 6 * = = * 7 ",
"8 9 0 a b b b b b c d e / / / / / ( f g h a i a a a a a a a j a k l m = = = - n ",
"o p < q r s s s s s s t t t t t t u u u v w x y y y y y y y y z A B = = = = C D ",
"E F G G G G G G G G G G G G G G G G G G G H I J C K L L M C C n N O = = = P C Q ",
"R F G G G G G G G G G G G G G G G G G G G H S n C C K L K C C n N O = = = C C Q ",
") T G G G G G G G G G G G G G G G G G G G U V C K W K X C C C n N O = = = - C C ",
"  Y G G G G G G G G G G G G G G G G G G G 1 _ C K L W C C C C n N O = = = - C n ",
"Z T 5 G G G G G G G ` ` ` G G G G G G G G  ._ C C ....K X C C +.@.O = = = Q C n ",
"#.$.%.&.*.*.*.*.*.=.-.;.-.>.,.,.,.'.'.'.'.'.).!.!.~.{ {.].3 ^./.(._.* P = :.C <.",
"[.}.|.1.2.2.2.2.2.1.3.4.5.6.7.7.7.8.8.8.8.8.8.8.8.8.8.8.8.w 5.9.0.a.b.7.c.7.7.8.",
"d.e.f.f.f.f.f.f.f.f.g.h.} i.i.i.i.i.i.i.i.i.i.i.i.i.i.i.i.i.i.i.j.k.l.x m.n.n.n.",
"o.e.f.f.f.f.f.f.f.f.p.q.i.i.i.i.i.i.i.i.i.i.i.i.i.i.i.i.i.i.i.i.r.s.C n <.<.t.u.",
"o.e.f.f.f.f.f.f.f.v.p.w.i.i.i.i.i.i.i.i.i.i.i.i.i.i.i.i.i.i.i.i.x.s.C C C C C y.",
"o.e.f.f.f.f.f.f.v.v.z.>.i.i.i.i.i.i.i.i.i.i.i.i.i.i.i.i.i.i.i.i.x.s.C C A.b.B.C.",
"D.f.f.f.f.v.f.v.v.v.E.F.i.i.i.i.i.i.i.i.i.i.i.i.i.i.i.i.i.i.i.i.G.H.+.+.I.t.J.K.",
"L.M.N.O.P.Q.R.R.R.S.T.U.V.V.V.V.V.W.X.Y.*.Z.`. +W.V.V.V.V..+++@+#+$+%+U U &+*+=+",
"-+;+;.=.=.>+,+,+,+,.'+%+)+)+)+)+)+!+!+B.~+R.{+]+!+)+)+)+)+~+S.S.^+/+(+U U _+*+=+",
"S :+2 2 2 2 2 2 2 2 H 1 1 1 1 1 1 1 1 1 1 <+[+[ 1 1 1 1 1 1 1 j.a t.U U )+}+*+=+",
"|+F i.i.i.i.i.i.i.i.i.i.i.i.i.i.i.i.i.i.i.1+~ i.i.i.i.i.i.i.i.j.a t.U 2+3+*+*+=+",
"|+F i.i.i.i.i.i.i.i.i.i.i.i.i.i.i.i.i.i.i.1+~ i.i.i.i.i.i.i.i.j.a +.1 4+5+*+*+=+",
"|+F i.i.i.i.i.i.i.i.i.i.i.i.i.i.i.i.i.i.i.1+~ i.i.i.i.i.i.i.i.j.a /+G 6+*+*+*+=+",
"7+u.i.i.i.i.i.i.i.i.i.i.i.i.i.i.i.i.i.i.i.8+b 9+i.i.i.i.i.i.i.j.a 0+a+b+*+*+*+=+",
"c+d+.+.+.+.+.+e+f+g+.+.+.+.+.+.+.+.+.+.+.+d+h+i+.+8+j+.+.+.+.+k+l+m+*+*+*+*+*+n+",
"o+p+q+r+r+r+r+r+h.s+r+r+r+r+r+r+r+r+r+r+r+r+r+r+r+t+r+r+r+r+r+u+v+*+*+*+*+*+*+w+",
"x+x+y+*+*+*+*+z+A+B+*+*+*+*+*+*+*+*+*+*+*+*+*+*+*+C+*+*+*+*+*+*+*+*+*+*+*+*+*+w+",
"*+D+E+*+*+*+*+F+G+B+*+*+*+*+*+*+*+*+*+*+*+*+*+*+*+H+*+*+*+*+*+*+*+*+*+*+*+*+I+J+",
"K+K+n+K+K+K+K+L+M+N+K+K+K+K+K+K+K+K+K+K+K+K+K+K+K+O+=+K+K+K+K+K+K+K+K+n+P+P+Q+R+",
"S+S+S+S+S+S+S+S+T+U+S+S+S+S+S+S+S+S+S+S+S+S+S+S+S+V+W+S+S+S+S+S+S+S+S+X+Y+Y+Z+J.",
"U U U U U U U U `+ @U U U U U U U U U U U U U U U .@U U U U U U U U U U U U u +@",
":.:.:.:.:.:.@@#@$@%@:.:.:.:.:.:.:.:.:.:.:.:.:.:.:.&@@@:.:.:.:.:.:.:.:.:.:.:.:.E."};
