/* XPM */
static char * coin_01_xpm[] = {
"56 60 389 2",
"  	c #A89F8E",
". 	c #909173",
"+ 	c #717416",
"@ 	c #72751B",
"# 	c #827614",
"$ 	c #987701",
"% 	c #997700",
"& 	c #8A896C",
"* 	c #717532",
"= 	c #72751A",
"- 	c #74773C",
"; 	c #6F7210",
"> 	c #807414",
", 	c #957201",
"' 	c #967200",
") 	c #6F7316",
"! 	c #73751B",
"~ 	c #7C7517",
"{ 	c #807615",
"] 	c #7E7416",
"^ 	c #9B8E60",
"/ 	c #BFAF95",
"( 	c #C0B096",
"_ 	c #74771D",
": 	c #777A1F",
"< 	c #797C21",
"[ 	c #787B21",
"} 	c #73761C",
"| 	c #74751A",
"1 	c #8F760B",
"2 	c #957202",
"3 	c #C4B7A0",
"4 	c #FBFAF8",
"5 	c #FCFBFA",
"6 	c #76791F",
"7 	c #7B7E23",
"8 	c #7E8126",
"9 	c #75751A",
"0 	c #90760A",
"a 	c #C7B9A3",
"b 	c #FEFDFD",
"c 	c #FFFFFF",
"d 	c #76791E",
"e 	c #7A7D23",
"f 	c #7A7D22",
"g 	c #8F750A",
"h 	c #987500",
"i 	c #957000",
"j 	c #C6B8A3",
"k 	c #FEFDFE",
"l 	c #74751F",
"m 	c #74782D",
"n 	c #797C31",
"o 	c #797C28",
"p 	c #72761D",
"q 	c #6C711A",
"r 	c #71751B",
"s 	c #7E7616",
"t 	c #887611",
"u 	c #877511",
"v 	c #8D7D33",
"w 	c #C3B8A3",
"x 	c #D5CBBC",
"y 	c #D4CABC",
"z 	c #D3C9BC",
"A 	c #E5DCBC",
"B 	c #FEF6BC",
"C 	c #FFF7BC",
"D 	c #908044",
"E 	c #938867",
"F 	c #968B6B",
"G 	c #848155",
"H 	c #6B7009",
"I 	c #6F731A",
"J 	c #887610",
"K 	c #987600",
"L 	c #A18442",
"M 	c #EAE5DF",
"N 	c #FFF9D1",
"O 	c #FFEE1A",
"P 	c #FFEE00",
"Q 	c #95855D",
"R 	c #808867",
"S 	c #997600",
"T 	c #A18341",
"U 	c #E9E5DE",
"V 	c #FFF9D0",
"W 	c #FFEE25",
"X 	c #988662",
"Y 	c #858E76",
"Z 	c #767A22",
"` 	c #72751C",
" .	c #8D7B2D",
"..	c #9F8039",
"+.	c #9E8036",
"@.	c #A68B55",
"#.	c #EAE5DC",
"$.	c #FFFFFD",
"%.	c #FFFEFA",
"&.	c #FFF8CC",
"*.	c #FFEE24",
"=.	c #FEEC00",
"-.	c #FDEB00",
";.	c #908255",
">.	c #686C1C",
",.	c #6D7018",
"'.	c #73751A",
").	c #8E760C",
"!.	c #8E760B",
"~.	c #E7E1DA",
"{.	c #E6E1D9",
"].	c #E8E2D6",
"^.	c #F9EFAB",
"/.	c #FFF494",
"(.	c #FFF396",
"_.	c #FFF397",
":.	c #FFF17A",
"<.	c #FFEE11",
"[.	c #ECCD00",
"}.	c #DDAE00",
"|.	c #DDB000",
"1.	c #C2B8A4",
"2.	c #8C7408",
"3.	c #D7CEC1",
"4.	c #FFFFFB",
"5.	c #FFF38B",
"6.	c #FFED00",
"7.	c #E3BB00",
"8.	c #CA8200",
"9.	c #CB8500",
"0.	c #FFF38E",
"a.	c #FFEF00",
"b.	c #E3BC00",
"c.	c #CC8700",
"d.	c #D7CCB3",
"e.	c #FFFEF0",
"f.	c #FFFDEF",
"g.	c #FFFCE8",
"h.	c #FFF284",
"i.	c #F9E400",
"j.	c #F8E300",
"k.	c #F9E300",
"l.	c #E1B800",
"m.	c #CE8B00",
"n.	c #CF8E00",
"o.	c #D7C34D",
"p.	c #FFF26A",
"q.	c #FFF16A",
"r.	c #FFF067",
"s.	c #FFEF37",
"t.	c #F8E200",
"u.	c #D9A800",
"v.	c #D49B00",
"w.	c #D49C00",
"x.	c #D8A200",
"y.	c #DBA600",
"z.	c #D7C200",
"A.	c #FFEE01",
"B.	c #F7E000",
"C.	c #D29600",
"D.	c #CB8400",
"E.	c #CB8600",
"F.	c #D69C00",
"G.	c #DEAB00",
"H.	c #DDAA00",
"I.	c #7E7415",
"J.	c #957100",
"K.	c #D6C000",
"L.	c #FFEF01",
"M.	c #D29700",
"N.	c #D59B00",
"O.	c #DCA900",
"P.	c #DCA800",
"Q.	c #988B5A",
"R.	c #BFAE93",
"S.	c #E4D46A",
"T.	c #F8E100",
"U.	c #D7A100",
"V.	c #D19200",
"W.	c #D19300",
"X.	c #D29400",
"Y.	c #DFB000",
"Z.	c #E8C300",
"`.	c #E8C200",
" +	c #BFB096",
".+	c #F9F8F7",
"++	c #FCFBFB",
"@+	c #FEF4B4",
"#+	c #E0B200",
"$+	c #DDA900",
"%+	c #F0D300",
"&+	c #FEED00",
"*+	c #C1B299",
"=+	c #FCFCFB",
"-+	c #FFF6B7",
";+	c #E1B300",
">+	c #DDAB00",
",+	c #F2D500",
"'+	c #FCFCFC",
")+	c #FFF6B8",
"!+	c #FFF000",
"~+	c #FAE400",
"{+	c #C1AD6F",
"]+	c #FCF4B9",
"^+	c #FFF286",
"/+	c #EED000",
"(+	c #E7C300",
"_+	c #E8C400",
":+	c #E6BF00",
"<+	c #DEAD00",
"[+	c #E4B900",
"}+	c #EECF00",
"|+	c #EFD000",
"1+	c #967301",
"2+	c #C1A900",
"3+	c #FCEB00",
"4+	c #FDEA00",
"5+	c #DBAB00",
"6+	c #CA8300",
"7+	c #DBA700",
"8+	c #EAC700",
"9+	c #ECCA00",
"0+	c #967300",
"a+	c #CF8F00",
"b+	c #DCAC00",
"c+	c #CC8600",
"d+	c #CC8900",
"e+	c #D09000",
"f+	c #EBC900",
"g+	c #FEEB00",
"h+	c #EAC600",
"i+	c #E3BA00",
"j+	c #D79E00",
"k+	c #D8A000",
"l+	c #D9A200",
"m+	c #E2B500",
"n+	c #E7C000",
"o+	c #E7BF00",
"p+	c #DCA700",
"q+	c #FEED2E",
"r+	c #F3E0A3",
"s+	c #EEDABD",
"t+	c #EFDBBD",
"u+	c #ECD2AC",
"v+	c #DFB042",
"w+	c #FFEF43",
"x+	c #FFFBDF",
"y+	c #FAF3EA",
"z+	c #E1B65D",
"A+	c #FFEF42",
"B+	c #FFFBDE",
"C+	c #F9F3EA",
"D+	c #E1B65C",
"E+	c #99791D",
"F+	c #987817",
"G+	c #957301",
"H+	c #BFA701",
"I+	c #F9E800",
"J+	c #FFEF41",
"K+	c #FFFADA",
"L+	c #FFFFFC",
"M+	c #F9F2E5",
"N+	c #E1B65A",
"O+	c #F1D300",
"P+	c #C0A706",
"Q+	c #9A998F",
"R+	c #8D896A",
"S+	c #7E730F",
"T+	c #988810",
"U+	c #BFA601",
"V+	c #C0A800",
"W+	c #C0A700",
"X+	c #E4D100",
"Y+	c #FFEE23",
"Z+	c #FFF282",
"`+	c #FFF497",
" @	c #F9E889",
".@	c #E1B433",
"+@	c #E4B800",
"@@	c #BFA606",
"#@	c #988818",
"$@	c #778067",
"%@	c #757B4B",
"&@	c #727519",
"*@	c #957200",
"=@	c #D6C100",
"-@	c #DDA901",
";@	c #957302",
">@	c #7E7413",
",@	c #92937D",
"'@	c #82845A",
")@	c #70740C",
"!@	c #E1B200",
"~@	c #DDAA01",
"{@	c #DCA901",
"]@	c #AFA495",
"^@	c #9E9881",
"/@	c #838556",
"(@	c #81761A",
"_@	c #FAE62C",
":@	c #E6C064",
"<@	c #E2B96A",
"[@	c #E2B969",
"}@	c #DFB145",
"|@	c #E2B741",
"1@	c #E2B600",
"2@	c #E6BD00",
"3@	c #FAE500",
"4@	c #A58B66",
"5@	c #A89A86",
"6@	c #9A9983",
"7@	c #817720",
"8@	c #FEEF6D",
"9@	c #FBF4E3",
"0@	c #FAF5EF",
"a@	c #FBF5EE",
"b@	c #FAF5EE",
"c@	c #EACEA2",
"d@	c #FBF5EC",
"e@	c #FBEC98",
"f@	c #FBE600",
"g@	c #FAE600",
"h@	c #FBE700",
"i@	c #AFA99E",
"j@	c #95927C",
"k@	c #72763C",
"l@	c #807618",
"m@	c #FFF176",
"n@	c #FFFEF4",
"o@	c #ECD4AE",
"p@	c #FFFFFE",
"q@	c #FFF5A4",
"r@	c #838567",
"s@	c #787B4A",
"t@	c #6E7211",
"u@	c #FFF100",
"v@	c #FFF177",
"w@	c #FFFEF5",
"x@	c #ECD2AD",
"y@	c #DCA600",
"z@	c #FFF5A5",
"A@	c #686D05",
"B@	c #6E7113",
"C@	c #C3AF05",
"D@	c #E7D300",
"E@	c #E6D300",
"F@	c #E8D400",
"G@	c #F9E700",
"H@	c #FFF063",
"I@	c #FFF9CE",
"J@	c #FFFAD9",
"K@	c #F2DFB6",
"L@	c #E8C895",
"M@	c #E8C996",
"N@	c #FFFAD7",
"O@	c #FFF28A",
"P@	c #8D7B10",
"Q@	c #9F7F00",
"R@	c #9E7E00",
"S@	c #A68800",
"T@	c #EAD700",
"U@	c #FFEE15",
"V@	c #FFEF35",
"W@	c #FFEF39",
"X@	c #FFEF3C",
"Y@	c #FEF7C7",
"Z@	c #FEFCFC",
"`@	c #FEFCFA",
" #	c #FFEF38",
".#	c #FFEE21",
"+#	c #A18100",
"@#	c #E9D600",
"##	c #FFEE0B",
"$#	c #FFF8C8",
"%#	c #FFF8C9",
"&#	c #8D7C10",
"*#	c #D5BF00",
"=#	c #D4BF00",
"-#	c #D3BE00",
";#	c #E5D200",
">#	c #FFEE09",
",#	c #FFF393",
"'#	c #FFF7BD",
")#	c #C6AF00",
"!#	c #C7AF00",
"~#	c #C4AE01",
"{#	c #FBE900",
"]#	c #9B8B0F",
"^#	c #BFA700",
"  . + @ @ @ @ @ @ @ @ @ @ @ @ @ @ @ # $ % % % % % % % % % % % % % % % % $ # @ @ @ @ @ @ @ @ @ @ @ @ @ @ @ @ @ @ ",
"& * = @ @ @ @ @ @ @ @ @ @ @ @ @ @ @ # $ % % % % % % % % % % % % % % % % $ # @ @ @ @ @ @ @ @ @ @ @ @ @ @ @ @ @ @ ",
"- ; @ @ @ @ @ @ @ @ @ @ @ @ @ @ @ @ > , ' ' ' ' ' ' ' ' ' ' ' ' ' ' ' ' , > @ @ @ @ @ @ @ @ @ @ @ @ @ @ @ @ @ @ ",
") @ @ @ @ @ @ @ @ @ ! ~ { { { { { ] ^ / ( ( ( ( ( ( ( ( ( ( ( ( ( ( ( ( / ^ ] { { { { { ~ ! @ @ _ : < [ } @ @ @ ",
"@ @ @ @ @ @ @ @ @ @ | 1 $ $ $ $ $ 2 3 4 5 5 5 5 5 5 5 5 5 5 5 5 5 5 5 5 4 3 2 $ $ $ $ $ 1 | @ _ 6 7 8 7 _ @ @ @ ",
"@ @ @ @ @ @ @ @ @ @ 9 0 % % % % % ' a b c c c c c c c c c c c c c c c c b a ' % % % % % 0 9 = d [ e f } @ @ @ @ ",
"@ @ @ @ @ @ @ @ @ @ | g h h h h h i j k c c c c c c c c c c c c c c c c k j i h h h h h g l m n o p q r @ @ @ @ ",
"@ @ @ @ @ @ @ s t u v w x y y y y z A B C C C C C C C C C C C C C C C C B A z y y y y x w D E F G H I @ @ @ @ @ ",
"@ @ @ @ @ @ @ J % K L M c c c c c c N O P P P P P P P P P P P P P P P P O N c c c c c c M L K % Q R [ @ @ @ @ @ ",
"@ @ @ @ @ @ @ J S K T U c c c c c c V W P P P P P P P P P P P P P P P P W V c c c c c c U T K S X Y Z ` @ @ @ @ ",
"@ @ @ ! | | |  ...+.@.#.$.%.%.%.%.$.&.*.P P =.-.-.-.-.-.-.-.-.-.-.=.P P *.&.$.%.%.%.%.$.#.@.+...;.>.,.'.! @ @ @ ",
"@ @ @ ~ ).!.!.w ~.{.].^./.(.(.(.(._.:.<.P P [.}.|.|.|.|.|.|.|.|.}.[.P P <.:._.(.(.(.(./.^.].{.~.1.2.!.).~ @ @ @ ",
"@ @ @ { $ % K 3.c c 4.5.6.P P P P P P P P P 7.8.9.9.9.9.9.9.9.9.8.7.P P P P P P P P P 6.5.4.c c 3.K % $ { @ @ @ ",
"@ @ @ { $ % K 3.c c %.0.P P P a.a.a.a.a.a.a.b.9.c.c.c.c.c.c.c.c.9.b.a.a.a.a.a.a.a.P P P 0.%.c c 3.K % $ { @ @ @ ",
"@ @ @ { $ % K d.e.f.g.h.P P =.i.j.k.k.k.k.j.l.m.n.n.n.n.n.n.n.n.m.l.j.k.k.k.k.j.i.=.P P h.g.f.e.d.K % $ { @ @ @ ",
"@ @ @ { $ % K o.p.q.r.s.P a.t.u.v.w.w.w.w.w.x.y.y.y.y.y.y.y.y.y.y.x.w.w.w.w.w.v.u.t.a.P s.r.q.p.o.K % $ { @ @ @ ",
"@ @ @ { $ % K z.a.P P P A.a.B.C.D.E.E.E.E.E.F.G.H.H.H.H.H.H.H.H.G.F.E.E.E.E.E.D.C.B.a.A.P P P a.z.K % $ { @ @ @ ",
"@ @ @ I., ' J.K.L.P P P P a.B.M.E.c.c.c.c.c.N.O.P.P.P.P.P.P.P.P.O.N.c.c.c.c.c.E.M.B.a.P P P P L.K.J.' , I.@ @ @ ",
"{ { ] Q.R.( ( S.a.P P P P a.T.U.V.W.W.W.W.X.Y.Z.`.`.`.`.`.`.`.`.Z.Y.X.W.W.W.W.V.U.T.a.P P P P a.S.( ( R.Q.] { { ",
"$ $ 2  +.+++++@+P P P P P a.i.#+P.O.O.O.O.$+%+&+=.=.=.=.=.=.=.=.&+%+$+O.O.O.O.P.#+i.a.P P P P P @+++++.+ +2 $ $ ",
"% % ' *+=+c c -+P P P P P a.i.;+$+H.H.H.H.>+,+a.P P P P P P P P a.,+>+H.H.H.H.$+;+i.a.P P P P P -+c c =+*+' % % ",
"% % ' *+'+c c )+P P P P a.!+~+;+$+H.H.$+$+H.,+a.P P P P P P P P a.,+H.$+$+H.H.$+;+~+!+a.P P P P )+c c '+*+' % % ",
"% % ' {+]+C C ^+P P =./+(+_+:+<+H.$+[+}+|+|+|+|+|+|+|+|+|+|+|+|+|+|+|+|+}+[+$+H.<+:+_+(+/+=.P P ^+C C ]+{+' % % ",
"% % 1+2+3+P P P P P 4+5+6+E.n.7+H.P.8+6.P P 9+P.$+$+$+$+$+$+$+$+P.9+P P 6.8+P.H.7+n.E.6+5+4+P P P P P 3+2+1+% % ",
"% % 0+2+3+P P P P P 4+5+9.c.a+7+H.P.8+&+P P 9+O.H.H.H.H.H.H.H.H.O.9+P P &+8+P.H.7+a+c.9.5+4+P P P P P 3+2+0+% % ",
"% % 0+2+3+P P P P P 4+b+c+d+e+7+H.P.8+&+P P 9+O.H.H.H.H.H.H.H.H.O.f+g+=.-.h+P.H.7+e+d+c+b+4+P P P P P 3+2+0+% % ",
"% % 0+2+3+P P P P P -.i+j+k+l+O.H.P.8+&+P P 9+O.H.H.H.H.H.H.H.H.H.m+`.`.`.;+$+H.O.l+k+j+i+-.P P P P P 3+2+0+% % ",
"% % 0+2+3+P P P P P -.n+$+>+>+H.H.P.8+&+P P 9+O.H.H.H.H.H.H.H.H.H.$+P.P.P.$+H.H.H.>+>+$+n+-.P P P P P 3+2+0+% % ",
"% % 0+2+3+P P P P P -.o+P.H.H.H.H.P.8+&+P P 9+O.H.H.H.H.H.H.H.H.H.H.H.H.H.H.H.H.H.H.H.P.o+-.P P P P P 3+2+0+% % ",
"% % 0+2+3+P P P P P -.o+P.H.H.H.H.P.8+&+P P 9+O.H.H.H.H.H.H.H.H.H.H.H.H.H.H.H.H.H.H.H.P.o+-.P P P P P 3+2+0+% % ",
"% % 0+2+3+P P P P P -.o+P.H.H.H.H.P.8+&+P P 9+O.H.H.H.H.H.H.H.H.H.H.H.H.H.H.H.H.H.H.H.P.o+-.P P P P P 3+2+0+% % ",
"% % 0+2+3+P P P P P -.o+P.H.H.H.H.P.8+&+P P 9+O.H.H.H.H.H.H.H.H.H.H.H.H.H.H.H.H.H.H.H.P.o+-.P P P P P 3+2+0+% % ",
"% % 0+2+3+P P P P P -.o+P.H.H.H.H.P.8+&+P P 9+O.H.H.H.H.H.H.H.H.H.$+P.P.P.$+H.H.H.H.H.P.o+-.P P P P P 3+2+0+% % ",
"% % 0+2+3+P P P P P -.o+P.H.H.H.H.P.8+&+P P 9+O.H.H.H.H.H.H.H.H.H.m+`.`.`.;+$+H.H.H.H.P.o+-.P P P P P 3+2+0+% % ",
"% % 0+2+3+P P P P P -.o+P.H.H.H.H.P.8+&+P P 9+O.H.H.H.H.H.H.H.H.O.f+g+=.-.h+P.H.H.H.H.P.o+-.P P P P P 3+2+0+% % ",
"% % 0+2+3+P P P P P -.o+P.H.H.H.H.P.8+&+P P 9+O.H.H.H.H.H.H.H.H.O.9+P P &+8+P.H.H.H.H.P.o+-.P P P P P 3+2+0+% % ",
"% % 0+2+3+P P P P P -.o+p+$+$+H.H.P.8+6.P P 9+P.$+$+$+$+$+$+$+$+P.9+P P 6.8+P.H.H.$+$+p+o+-.P P P P P 3+2+0+% % ",
"% % 0+2+3+P P P P P q+r+s+t+u+v+$+$+[+}+|+|+|+|+|+|+|+|+|+|+|+|+|+|+|+|+}+[+$+$+v+u+t+s+r+q+P P P P P 3+2+0+% % ",
"% % 0+2+3+P P P P P w+x+c c y+z+$+H.H.$+$+H.,+a.P P P P P P P P a.,+H.$+$+H.H.$+z+y+c c x+w+P P P P P 3+2+0+% % ",
"% % 0+2+3+P P P P P A+B+c c C+D+$+H.H.H.H.H.,+a.P P P P P P P P a.,+H.H.H.H.H.$+D+C+c c B+A+P P P P P 3+2+0+% % ",
"E+F+G+H+I+3+3+=.P P J+K+$.L+M+N+$+H.H.H.H.H.O+&+=.=.=.=.=.=.=.=.&+O+H.H.H.H.H.$+N+M+L+$.K+J+P P =.3+3+I+P+G+$ $ ",
"Q+R+S+T+U+V+W+X+a.P Y+Z+_.`+ @.@$+H.H.H.H.H.+@Z.`.`.`.`.`.`.`.`.Z.+@H.H.H.H.H.$+.@ @`+_.Z+Y+P a.X+W+V+@@#@I.{ { ",
"$@%@&@I.G+0+*@=@a.P P P P a.k.;+-@H.H.H.H.H.$+P.P.P.P.P.P.P.P.P.P.$+H.H.H.H.H.-@;+k.a.P P P P a.=@*@0+;@>@@ @ @ ",
",@'@)@{ $ % K z.a.P P P P L.i.!@P.P.P.P.P.P.$+~@H.H.H.H.H.H.H.H.~@$+P.P.P.O.{@P.!@i.a.P P P P a.z.K % $ { @ @ @ ",
"]@^@/@(@$ % K z.a.P P P P a._@:@<@[@[@[@[@[@}@H.H.H.H.H.H.H.H.H.H.}@[@[@[@|@1@m+2@3@a.P P P P a.z.K % $ { @ @ @ ",
"4@5@6@7@$ % K z.a.P P P P P 8@9@0@a@a@a@a@b@c@P.H.H.H.H.H.H.H.H.P.c@b@a@d@e@f@g@h@&+P P P P P a.z.K % $ { @ @ @ ",
"i@j@k@l@$ % K z.a.P P P P P m@n@c c c c c c o@P.H.H.H.H.H.H.H.H.P.o@c c p@q@P a.a.P P P P P P a.z.K % $ { @ @ @ ",
"r@s@t@{ $ % K z.u@!+!+P P P v@w@c c c c c c x@y@P.P.P.P.P.P.P.P.y@x@c c c z@P P P P P P P !+!+u@z.K % $ { @ @ @ ",
"A@B@@ ~ ).!.!.C@D@E@F@G@a.P H@I@K+J@J@J@J@J@K@L@M@M@M@M@M@M@M@M@L@K@J@J@N@O@P P P P P a.G@F@E@D@C@!.!.).~ @ @ @ ",
"@ @ @ ! | | | P@Q@R@S@T@!+P U@V@W@W@W@W@W@X@Y@Z@`@`@`@`@`@`@`@`@Z@Y@X@W@ #.#P P P P P !+T@S@R@Q@P@| | | ! @ @ @ ",
"@ @ @ @ @ @ @ J % K +#@#!+P P P P P P P P ##$#c c c c c c c c c c $###P P P P P P P P !+@#+#K % J @ @ @ @ @ @ @ ",
"@ @ @ @ @ @ @ J % K +#T@!+a.a.a.a.a.P P P <.%#c c c c c c c c c c %#<.P P P a.a.a.a.a.!+T@+#K % J @ @ @ @ @ @ @ ",
"@ @ @ @ @ @ @ s t u &#C@*#=#=#=#=#-#;#&+P >#,#'#C C C C C C C C '#,#>#P &+;#-#=#=#=#=#*#C@&#u t s @ @ @ @ @ @ @ ",
"@ @ @ @ @ @ @ @ @ @ | g h h h h h J.)#=.P P P P P P P P P P P P P P P P =.)#J.h h h h h g | @ @ @ @ @ @ @ @ @ @ ",
"@ @ @ @ @ @ @ @ @ @ 9 0 % % % % % 0+!#&+P P P P P P P P P P P P P P P P &+!#0+% % % % % 0 9 @ @ @ @ @ @ @ @ @ @ ",
"@ @ @ @ @ @ @ @ @ @ | 1 $ $ $ $ $ ;@~#{#3+3+3+3+3+3+3+3+3+3+3+3+3+3+3+3+{#~#;@$ $ $ $ $ 1 | @ @ @ @ @ @ @ @ @ @ ",
"@ @ @ @ @ @ @ @ @ @ ! ~ { { { { { ] ]#^#V+V+V+V+V+V+V+V+V+V+V+V+V+V+V+V+^#]#] { { { { { ~ ! @ @ @ @ @ @ @ @ @ @ ",
"@ @ @ @ @ @ @ @ @ @ @ @ @ @ @ @ @ @ > G+0+0+0+0+0+0+0+0+0+0+0+0+0+0+0+0+G+> @ @ @ @ @ @ @ @ @ @ @ @ @ @ @ @ @ @ ",
"@ @ @ @ @ @ @ @ @ @ @ @ @ @ @ @ @ @ # $ % % % % % % % % % % % % % % % % $ # @ @ @ @ @ @ @ @ @ @ @ @ @ @ @ @ @ @ ",
"@ @ @ @ @ @ @ @ @ @ @ @ @ @ @ @ @ @ # $ % % % % % % % % % % % % % % % % $ # @ @ @ @ @ @ @ @ @ @ @ @ @ @ @ @ @ @ "};
