/* XPM */
static char * TX Struct_v1_xpm[] = {
"60 60 534 2",
"  	c #7A7367",
". 	c #766E5E",
"+ 	c #6F644A",
"@ 	c #7A7467",
"# 	c #868579",
"$ 	c #7F7B6E",
"% 	c #706355",
"& 	c #87867A",
"* 	c #87867B",
"= 	c #807B6F",
"- 	c #716356",
"; 	c #88877B",
"> 	c #83826F",
", 	c #858471",
"' 	c #8E8C80",
") 	c #8D8A83",
"! 	c #8E8C85",
"~ 	c #8E8C84",
"{ 	c #858078",
"] 	c #73675C",
"^ 	c #8F8D85",
"/ 	c #8E8B84",
"( 	c #74675C",
"_ 	c #8D8B84",
": 	c #8E8D81",
"< 	c #72751B",
"[ 	c #6E6F2B",
"} 	c #665E56",
"| 	c #706B62",
"1 	c #6F6A61",
"2 	c #6E6960",
"3 	c #6D695F",
"4 	c #6D685F",
"5 	c #696156",
"6 	c #625144",
"7 	c #6D6960",
"8 	c #6B675D",
"9 	c #6B665D",
"0 	c #655749",
"a 	c #6A665C",
"b 	c #707132",
"c 	c #6E6F2D",
"d 	c #665F56",
"e 	c #6F6B61",
"f 	c #696056",
"g 	c #707233",
"h 	c #635A52",
"i 	c #6B655C",
"j 	c #6C685E",
"k 	c #686056",
"l 	c #6A655C",
"m 	c #6A675D",
"n 	c #625346",
"o 	c #676055",
"p 	c #61574E",
"q 	c #676158",
"r 	c #6C675E",
"s 	c #625143",
"t 	c #6C685F",
"u 	c #6A665D",
"v 	c #605043",
"w 	c #675F54",
"x 	c #69655B",
"y 	c #707232",
"z 	c #6E6F2C",
"A 	c #60564D",
"B 	c #675F57",
"C 	c #685F55",
"D 	c #615043",
"E 	c #6A645C",
"F 	c #69645B",
"G 	c #69655C",
"H 	c #665E54",
"I 	c #5F554D",
"J 	c #655D55",
"K 	c #675E54",
"L 	c #614F42",
"M 	c #69635B",
"N 	c #68635A",
"O 	c #69645C",
"P 	c #604F43",
"Q 	c #655D53",
"R 	c #68645A",
"S 	c #5F554C",
"T 	c #666057",
"U 	c #604E41",
"V 	c #68625A",
"W 	c #68635B",
"X 	c #5E4C40",
"Y 	c #655B52",
"Z 	c #676259",
"` 	c #707131",
" .	c #5E544C",
"..	c #5E544B",
"+.	c #655F56",
"@.	c #69635A",
"#.	c #665D53",
"$.	c #5F4E41",
"%.	c #5B473B",
"&.	c #645A51",
"*.	c #676159",
"=.	c #6E6E2B",
"-.	c #5D534B",
";.	c #615850",
">.	c #666058",
",.	c #686259",
"'.	c #655C53",
").	c #5F4D40",
"!.	c #635A50",
"~.	c #5D524A",
"{.	c #645C54",
"].	c #655E56",
"^.	c #5C493C",
"/.	c #67625A",
"(.	c #5A473A",
"_.	c #635950",
":.	c #6D6E2B",
"<.	c #5C5149",
"[.	c #5D5149",
"}.	c #635B53",
"|.	c #645D55",
"1.	c #645E55",
"2.	c #655E55",
"3.	c #665F57",
"4.	c #5A463A",
"5.	c #6B6A1E",
"6.	c #4F3529",
"7.	c #50372B",
"8.	c #51382C",
"9.	c #523B2E",
"0.	c #553E2F",
"a.	c #563E2F",
"b.	c #553E2E",
"c.	c #553C2D",
"d.	c #553B2B",
"e.	c #54392A",
"f.	c #543829",
"g.	c #543728",
"h.	c #553D30",
"i.	c #59483C",
"j.	c #533526",
"k.	c #533627",
"l.	c #523424",
"m.	c #543A24",
"n.	c #533A24",
"o.	c #503824",
"p.	c #6C6B1E",
"q.	c #6D6D28",
"r.	c #5A4E43",
"s.	c #5A4F44",
"t.	c #5B4F44",
"u.	c #5B5146",
"v.	c #5C5146",
"w.	c #5C5247",
"x.	c #5D5247",
"y.	c #5B4E43",
"z.	c #594B40",
"A.	c #5B4818",
"B.	c #71731B",
"C.	c #574718",
"D.	c #5D5348",
"E.	c #6D6E2A",
"F.	c #6D6E29",
"G.	c #5A5045",
"H.	c #5B5045",
"I.	c #5B5046",
"J.	c #5C5147",
"K.	c #5B4E42",
"L.	c #5A4722",
"M.	c #594A16",
"N.	c #71741B",
"O.	c #584A16",
"P.	c #564622",
"Q.	c #5A4D42",
"R.	c #6E6E2A",
"S.	c #5A5046",
"T.	c #5B5047",
"U.	c #5B5147",
"V.	c #594C41",
"W.	c #5B4C25",
"X.	c #6F701A",
"Y.	c #6E701A",
"Z.	c #5A4B25",
"`.	c #5B4D41",
" +	c #5B4E26",
".+	c #6D6E19",
"++	c #6E6E19",
"@+	c #5D4E26",
"#+	c #5A4D41",
"$+	c #5A4F46",
"%+	c #57463B",
"&+	c #615915",
"*+	c #635915",
"=+	c #58473B",
"-+	c #5B4F48",
";+	c #5B5048",
">+	c #625951",
",+	c #625B52",
"'+	c #635C52",
")+	c #645D54",
"!+	c #5B4D1F",
"~+	c #70711A",
"{+	c #70721A",
"]+	c #5C4D1F",
"^+	c #6F7030",
"/+	c #5A4E47",
"(+	c #5A4E48",
"_+	c #5A4F48",
":+	c #635A51",
"<+	c #5F5214",
"[+	c #5C5114",
"}+	c #645E56",
"|+	c #635C54",
"1+	c #6F702F",
"2+	c #6C6C24",
"3+	c #554338",
"4+	c #554339",
"5+	c #55443A",
"6+	c #533F32",
"7+	c #563D2E",
"8+	c #5B4A3D",
"9+	c #5F5348",
"0+	c #605449",
"a+	c #605247",
"b+	c #5A4537",
"c+	c #5F4F33",
"d+	c #6F701B",
"e+	c #5C4D30",
"f+	c #563F33",
"g+	c #5C4A3E",
"h+	c #5E4E43",
"i+	c #62584E",
"j+	c #5D4B3F",
"k+	c #573E2E",
"l+	c #5B483B",
"m+	c #60544A",
"n+	c #5B473A",
"o+	c #584234",
"p+	c #553B2E",
"q+	c #6C6B20",
"r+	c #5E534B",
"s+	c #5D5349",
"t+	c #533E32",
"u+	c #6B655D",
"v+	c #6B665E",
"w+	c #696157",
"x+	c #605320",
"y+	c #5F521E",
"z+	c #675E55",
"A+	c #6A635A",
"B+	c #594436",
"C+	c #5D534A",
"D+	c #523E33",
"E+	c #615523",
"F+	c #5E511C",
"G+	c #655F57",
"H+	c #5A4639",
"I+	c #6F7031",
"J+	c #56483E",
"K+	c #696057",
"L+	c #5C5049",
"M+	c #5D534C",
"N+	c #574941",
"O+	c #635B54",
"P+	c #615421",
"Q+	c #665C54",
"R+	c #5C4C40",
"S+	c #564840",
"T+	c #615951",
"U+	c #615420",
"V+	c #5E521E",
"W+	c #665D54",
"X+	c #5D4C40",
"Y+	c #5D514A",
"Z+	c #615851",
"`+	c #676059",
" @	c #615522",
".@	c #675D54",
"+@	c #574133",
"@@	c #6D6D29",
"#@	c #5A4D46",
"$@	c #5B4E47",
"%@	c #5B4F47",
"&@	c #55463E",
"*@	c #60564E",
"=@	c #655D54",
"-@	c #64594D",
";@	c #645D23",
">@	c #665E21",
",@	c #63594C",
"'@	c #61574F",
")@	c #625950",
"!@	c #60554C",
"~@	c #61584F",
"{@	c #625A51",
"]@	c #6D6D26",
"^@	c #57483F",
"/@	c #574840",
"(@	c #584940",
"_@	c #584941",
":@	c #5D5047",
"<@	c #62574D",
"[@	c #5E4F44",
"}@	c #5F513A",
"|@	c #6B6A19",
"1@	c #6C6B1C",
"2@	c #5F533C",
"3@	c #5D4C42",
"4@	c #62554B",
"5@	c #605147",
"6@	c #5E4D41",
"7@	c #5E4C41",
"8@	c #605044",
"9@	c #63574C",
"0@	c #63554A",
"a@	c #6E6E28",
"b@	c #5C524B",
"c@	c #5D524B",
"d@	c #5D544D",
"e@	c #5F554E",
"f@	c #5F564F",
"g@	c #605750",
"h@	c #5D4E16",
"i@	c #5F511E",
"j@	c #6C665E",
"k@	c #6A655D",
"l@	c #717234",
"m@	c #5A4F49",
"n@	c #5B4F49",
"o@	c #5C514B",
"p@	c #5E544E",
"q@	c #5F554F",
"r@	c #615750",
"s@	c #645D56",
"t@	c #665F58",
"u@	c #645B51",
"v@	c #5E5017",
"w@	c #5D514B",
"x@	c #5E534D",
"y@	c #5E554E",
"z@	c #60564F",
"A@	c #645C55",
"B@	c #5E5018",
"C@	c #60531E",
"D@	c #685E55",
"E@	c #5C504A",
"F@	c #605650",
"G@	c #635B55",
"H@	c #645B52",
"I@	c #685F56",
"J@	c #5B504A",
"K@	c #5E534C",
"L@	c #655D56",
"M@	c #5E5019",
"N@	c #787930",
"O@	c #5C514A",
"P@	c #5D524C",
"Q@	c #5E4F18",
"R@	c #60521E",
"S@	c #6C6C26",
"T@	c #56463E",
"U@	c #574942",
"V@	c #584A43",
"W@	c #56473F",
"X@	c #57463F",
"Y@	c #574841",
"Z@	c #584942",
"`@	c #594B44",
" #	c #60554D",
".#	c #605249",
"+#	c #5F5148",
"@#	c #605342",
"##	c #676116",
"$#	c #68631B",
"%#	c #625645",
"&#	c #5D5147",
"*#	c #5D5148",
"=#	c #60544B",
"-#	c #60554B",
";#	c #61564D",
">#	c #61564C",
",#	c #6D6D27",
"'#	c #584A41",
")#	c #594C44",
"!#	c #56463D",
"~#	c #4F362B",
"{#	c #594A42",
"]#	c #5A4C44",
"^#	c #62564C",
"/#	c #62554C",
"(#	c #69651E",
"_#	c #69641C",
":#	c #645947",
"<#	c #64584E",
"[#	c #655A50",
"}#	c #6A6259",
"|#	c #675D52",
"1#	c #665B51",
"2#	c #685E54",
"3#	c #70702F",
"4#	c #787931",
"5#	c #503A2F",
"6#	c #5D534D",
"7#	c #5E544D",
"8#	c #68625B",
"9#	c #665D55",
"0#	c #605422",
"a#	c #6C6861",
"b#	c #6C6761",
"c#	c #6C6760",
"d#	c #5C493D",
"e#	c #6A655E",
"f#	c #717235",
"g#	c #636628",
"h#	c #594D47",
"i#	c #533F36",
"j#	c #6A6158",
"k#	c #6A665F",
"l#	c #69655F",
"m#	c #5B493E",
"n#	c #68635D",
"o#	c #707234",
"p#	c #5A4D47",
"q#	c #605421",
"r#	c #55463D",
"s#	c #655C52",
"t#	c #594D46",
"u#	c #523D33",
"v#	c #645A52",
"w#	c #5C524C",
"x#	c #625A53",
"y#	c #635951",
"z#	c #5E4F17",
"A#	c #6A6660",
"B#	c #696660",
"C#	c #707235",
"D#	c #6B6B20",
"E#	c #4F372E",
"F#	c #4F372D",
"G#	c #4B2E21",
"H#	c #503930",
"I#	c #503A31",
"J#	c #533D32",
"K#	c #5E4F14",
"L#	c #5E5016",
"M#	c #594438",
"N#	c #5A463D",
"O#	c #59463C",
"P#	c #59463D",
"Q#	c #533423",
"R#	c #59453B",
"S#	c #6D6C26",
"T#	c #5F5349",
"U#	c #5F544B",
"V#	c #5F544A",
"W#	c #5F4F3E",
"X#	c #676219",
"Y#	c #676218",
"Z#	c #706658",
"`#	c #716A60",
" $	c #6E675C",
".$	c #6E685D",
"+$	c #717233",
"@$	c #6F702E",
"#$	c #665E55",
"$$	c #605146",
"%$	c #645B18",
"&$	c #625811",
"*$	c #746C63",
"=$	c #7A786D",
"-$	c #767469",
";$	c #737539",
">$	c #5F5146",
",$	c #645B19",
"'$	c #7F8226",
")$	c #707030",
"!$	c #686057",
"~$	c #696159",
"{$	c #605248",
"]$	c #625914",
"^$	c #787B21",
"/$	c #766E65",
"($	c #7F7D73",
"_$	c #7C7A70",
":$	c #7B796F",
"<$	c #7A786E",
"[$	c #74763B",
"}$	c #685E56",
"|$	c #6A6159",
"1$	c #6B635C",
"2$	c #6C635C",
"3$	c #6C645C",
"4$	c #6C645D",
"5$	c #63544B",
"6$	c #625913",
"7$	c #656C17",
"8$	c #746B62",
"9$	c #827F77",
"0$	c #817E76",
"a$	c #7F7C74",
"b$	c #7C7970",
"c$	c #74763C",
"d$	c #5B4E45",
"e$	c #5C5148",
"f$	c #5D544B",
"g$	c #5E554D",
"h$	c #5F564D",
"i$	c #60574E",
"j$	c #60584F",
"k$	c #5A4A40",
"l$	c #625915",
"m$	c #655950",
"n$	c #6F7131",
"o$	c #5A4E45",
"p$	c #5C5249",
"q$	c #5E554C",
"r$	c #5F564E",
"s$	c #605950",
"t$	c #5A4B41",
"u$	c #625812",
"v$	c #6C6A1D",
"w$	c #513323",
"x$	c #533625",
"y$	c #533727",
"z$	c #543827",
"A$	c #543828",
"B$	c #543928",
"C$	c #533828",
"D$	c #5D4E23",
"E$	c #5F5229",
"F$	c #553C2E",
"G$	c #563B2D",
"H$	c #553A2D",
"I$	c #70721B",
"                                . + @                                                   @ + .                           ",
"# # # # # # # # # # # # # # # # $ % & # # # # # # # # # # # # # # # # # # # # # # # # # & % $ # # # # # # # # # # # # # ",
"# # # * * * * * * * * * * * * * = - ; * * * * * * * * * * * * * * * * * * * * * * * * * ; - = * * * * * * * * * * * * * ",
"> > , ' ) ! ! ! ~ ~ ~ ~ ~ ~ ~ ~ { ] ^ / / / / / / / / / / / / / / / / / / / / / / / / / ! ( { / / / / / / / / / / / _ : ",
"< < < [ } | 1 1 2 3 4 4 4 4 4 4 5 6 7 8 8 8 8 8 8 8 8 8 8 8 8 8 8 8 8 8 8 8 8 8 8 9 9 9 8 0 5 9 9 9 9 9 9 9 a a a a a b ",
"< < < c d e 1 1 2 3 4 4 4 4 4 4 f 6 7 8 8 8 8 8 8 8 8 8 8 8 8 8 8 8 8 8 8 8 8 8 8 9 9 9 9 0 5 9 9 9 9 9 9 9 a a a a a g ",
"< < < c h i 2 2 3 4 j j j j j j k 6 3 a a a a a a a a a a a a a a a a a a a a l l a a a m n o a a a a a a a a a a a a g ",
"< < < c p q 2 4 j r r r r r r r k s t a a a l a l l l l l l l l l l l l l l l l l l l l u v w l l l l l l l l x l l x y ",
"< < < z A B r j r r 9 9 9 9 9 9 C D r l l l l l l l l E E E E F F F F F F F F F F F F F G v H x F x x x x x x x x x x y ",
"< < < z I J 9 9 9 l l l l l l l K L 9 F F F F F F F F M M M F M M M M M M M M M M M M N O P Q M M F M F R M F R R R R b ",
"< < < z S I T l l l l l l l l l H U O M N N N N N N N N N N N N V N V V V V V V N V V V W X Y V V V V V V V V V Z Z Z ` ",
"< < < z  ...+.M @.@.@.M F F F F #.$.M V V V V V V V V V V V V V V V V V V V V V V V V V W %.&.V V V V V V Z Z Z *.*.*.` ",
"< < < =.-.-.;.>.*.*.*.Z ,.,.V N '.).V V V V V V Z V V V V V V V V V V V V V V V V V V V N %.!.V Z Z Z Z Z *.*.*.*.*.*.` ",
"< < < =.~.~.~.{.+.].+.T >.>.*.*.&.^./.*.*.*.*.*.*.*.*.*.*.*.*.*.*.*.*.*.*.*.*.*.*.*.*.*./.(._.*.*.*.*.*.*.*.*.*.*.*.*.` ",
"< < < :.<.<.[.}.|.|.1.2.d 3.>.*._.4.*.*.*.*.*.*.*.*.*.*.*.*.*.*.*.*.*.*.*.*.*.*.*.*.*.*.*.4._.*.*.*.*.*.*.*.*.*.*.*.*.` ",
"< < < 5.6.7.8.9.0.a.b.c.d.e.f.g.h.i.j.k.k.k.l.m.m.m.m.m.m.n.o.o.o.n.m.m.m.m.m.m.l.k.k.k.j.i.h.k.k.k.k.k.k.k.k.k.k.k.k.p.",
"< < < q.r.s.t.u.v.v.v.v.v.v.v.v.v.w.v.x.y.z.A.B.B.B.B.B.B.B.B.B.B.B.B.B.B.B.B.B.C.z.r.x.w.D.x.w.w.w.w.w.w.w.w.w.w.w.w.E.",
"< < < F.G.H.I.J.w.w.w.w.w.w.w.w.w.D.D.K.L.M.N.< < < < < < < < < < < < < < < < < N.O.P.Q.D.D.D.D.D.D.D.D.D.D.D.D.D.D.D.R.",
"< < < F.S.I.T.U.w.w.w.w.w.w.w.w.w.D.V.W.X.< < < < < < < < < < < < < < < < < < < < < Y.Z.`.D.D.D.D.D.D.D.D.D.D.D.D.D.D.R.",
"< < < F.S.T.T.T.J.w.w.w.w.w.w.w.w.`. +.+< < < < < < < < < < < < < < < < < < < < < < < ++@+#+D.D.D.D.D.D.D.D.D.D.D.D.D.R.",
"< < < F.$+S.S.S.J.w.w.w.w.w.w.w.w.%+&+< < < < < < < < < < < < < < < < < < < < < < < < < *+=+D.D.D.D.D.D.D.D.D.D.D.D.D.R.",
"< < < E.-+;+;+;+<.>+,+'+)+|.1.+.p !+~+< < < < < < < < < < < < < < < < < < < < < < < < < {+]+Y 1.|.|.|.|.|.|.|.|.|.|.|.^+",
"< < < E./+/+(+_+-+:+}.J ].+.} d _.<+< < < < < < < < < < < < < < < < < < < < < < < < < < < [+Y |.|.|.].].|.)+)+}+)+{.|+1+",
"< < < 2+3+4+5+5+6+7+8+9+0+a+^.b+c+d+< < < < < < < < < < < < < < < < < < < < < < < < < < < d+e+f+g+h+i+i+j+k+l+m+n+o+p+q+",
"< < < =.-.-.r+..s+t+l l u+9 v+r w+x+< < < < < < < < < < < < < < < < < < < < < < < < < < < y+z+9 9 9 9 u+A+B+@.u+9 9 9 g ",
"< < < E.<.<.~.C+<.D+*.*.*.*.*.V w+E+< < < < < < < < < < < < < < < < < < < < < < < < < < < F+'.G+G+G+G+G+G+H+|.G+G+G+G+I+",
"< < < E.<.~.~.-.~.J+*.*.*.*.*.V K+E+< < < < < < < < < < < < < < < < < < < < < < < < < < < F+'.>.G+G+G+G+G+8+|.G+G+G+G+I+",
"< < < E.L+~.-.M+-.N+O+*.*.*.*.V C P+< < < < < < < < < < < < < < < < < < < < < < < < < < < F+Q+>.G+G+G+G+G+R+|.G+G+G+G+I+",
"< < < E.L+~.-.M+-.S+T+*.*.*.*.Z K U+< < < < < < < < < < < < < < < < < < < < < < < < < < < V+W+>.G+G+G+G+G+X+|.G+G+G+G+I+",
"< < < E.L+Y+-.-.-.S+Z+`+*.*.*.Z K E+< < < < < < < < < < < < < < < < < < < < < < < < < < <  @.@>.G+G+G+G+G++@|.G+G+G+G+I+",
"< < < @@#@#@$@-+%@&@L+*@J =@h :+-@;@< < < < < < < < < < < < < < < < < < < < < < < < < < < >@,@'@>+{.{.{.)@7+!@~@:+{@~@c ",
"< < < ]@^@^@/@(@_@_@_@:@<@<@[@R+}@|@< < < < < < < < < < < < < < < < < < < < < < < < < < < 1@2@3@4@#.#.W+5@6@7@8@9@0@8@a@",
"< < < :.b@c@d@I e@f@g@|.O O O O '.h@< < < < < < < < < < < < < < < < < < < < < < < < < < < i@w+r j@v+v+j@k@k@k@j@j@j@j@l@",
"< < < E.m@n@o@M+p@q@f@r@s@t@t@t@u@v@< < < < < < < < < < < < < < < < < < < < < < < < < < < y+K >.G+G+G+G+G+G+G+G+G+G+G+I+",
"< < < E.m@L+w@x@y@q@z@g@A@t@t@>.u@B@< < < < < < < < < < < < < < < < < < < < < < < < < < < C@D@>.G+G+G+G+G+G+G+G+G+G+G+I+",
"< < < E.m@E@w@x@p@f@F@F@G@t@t@>.H@B@< < < < < < < < < < < < < < < < < < < < < < < < < < < y+I@>.G+G+G+G+G+G+G+G+G+G+G+I+",
"< < < E._+J@o@K@p@e@z@F@F@L@t@>.H@M@< < < < < < < < < < < < < < < < < < < < < < < < < < < C@I@>.G+G+G+G+G+G+G+G+G+G+G+I+",
"< < < N@(+J@O@P@x@p@q@f@q@s@t@`+H@Q@< < < < < < < < < < < < < < < < < < < < < < < < < < < R@I@>.G+G+G+G+G+G+G+G+G+G+G+I+",
"< < < S@T@U@V@W@X@/@Y@Z@`@ #.#+#@###< < < < < < < < < < < < < < < < < < < < < < < < < < < $#%#&#*#~@{@p m+=#-#;#)@;#>#z ",
"< < < ,#'#)#)#/@!#~#(@{#]#*#^#/#%#(#< < < < < < < < < < < < < < < < < < < < < < < < < < < _#:#<#[#k }#f |#n+1#C w+2#2#3#",
"< < < 4#J@J@J@J@(+5#6#7#x@x@`+8#9#0#< < < < < < < < < < < < < < < < < < < < < < < < < < < y+}#a#a#b#c#b#a#d#e#a#b#a#a#f#",
"< < < g#(+(+(+(+h#i#b@P@P@P@L@>.'.P+< < < < < < < < < < < < < < < < < < < < < < < < < < < y+j#k#l#l#l#l#l#m#n#l#l#l#l#o#",
"< < < E.(+(+(+(+p#W@c@P@P@P@x@t@'.q#< < < < < < < < < < < < < < < < < < < < < < < < < < < R@j#k#l#l#l#l#l#g+n#l#l#l#l#o#",
"< < < E.(+(+(+(+p#r#o@P@P@P@6#t@s#x+< < < < < < < < < < < < < < < < < < < < < < < < < < < R@j#k#l#l#l#l#l#d#n#l#l#l#l#o#",
"< < < E.(+(+(+(+t#u#o@c@P@P@M+t@v#M@< < < < < < < < < < < < < < < < < < < < < < < < < < < C@j#k#l#l#l#l#l#d#n#l#l#l#l#o#",
"< < < E.m@m@m@m@p#u#o@o@w#w#P@x#y#z#< < < < < < < < < < < < < < < < < < < < < < < < < < < C@}#A#B#B#B#B#A#4.n#B#B#B#B#C#",
"< < < D#E#E#E#E#F#G#H#H#H#H#H#I#J#K#< < < < < < < < < < < < < < < < < < < < < < < < < < < L#M#N#O#O#O#O#P#Q#R#O#O#O#O#S#",
"< < < R.&#T#=#U#=#=#V#V#V#V#V#V#=#W#X#< < < < < < < < < < < < < < < < < < < < < < < < < Y#Z#`# $ $ $ $ $ $.$ $ $ $ $ $+$",
"< < < @$:+=@#$#$#$#$#$#$#$#$#$#$#$$$%$< < < < < < < < < < < < < < < < < < < < < < < < < &$*$=$-$-$-$-$-$-$-$-$-$-$-$-$;$",
"< < < @$H@=@#$#$#$#$#$#$#$#$#$#$#$>$,$< < < < < < < < < < < < < < < '$'$< < < < < < < < &$*$=$-$-$-$-$-$-$-$-$-$-$-$-$;$",
"< < < )$z+!$~$~$~$~$~$~$~$~$~$~$~${$]$< < < < < < < < < < < < < < < < '$^$^$< < < '$'$< &$/$($_$_$_$:$<$<$<$<$<$<$<$<$[$",
"< < < )$}$|$1$2$2$3$3$3$3$3$3$3$4$5$6$< < < < < < < < < < < < < < < < 7$^$^$< < ^$'$< < &$8$9$0$0$0$a$b$b$b$b$b$b$b$b$c$",
"< < < F.d$e$f$g$h$i$j$j$j$j$j$j$j$k$l$< < < < < < < < < < < < < < < < < 7$7$< ^$^$^$< < 6$m$V >.>.>.>.>.>.>.>.>.>.>.>.n$",
"< < < q.o$p$q$r$i$j$j$j$j$j$j$j$s$t$]$< < < < < < < < < < < < < < < < < < < < ^$^$7$< < u$m$O *.*.*.*.*.*.*.*.*.*.*.*.b ",
"< < < v$w$x$y$z$A$A$B$B$B$B$B$B$C$D$~+< < < < < < < < < < < < < < < < < < < < 7$7$< < < ~+E$F$G$G$G$G$G$G$G$G$G$G$G$H$q+",
"< < < N.X.X.X.X.X.X.X.X.X.X.X.X.X.I$< < < < < < < < < < < < < < < < < < < < < < < < < < < I$X.X.X.X.X.X.X.X.X.X.X.X.X.N.",
"< < < < < < < < < < < < < < < < < < < < < < < < < < < < < < < < < < < < < < < < < < < < < < < < < < < < < < < < < < < < ",
"< < < < < < < < < < < < < < < < < < < < < < < < < < < < < < < < < < < < < < < < < < < < < < < < < < < < < < < < < < < < ",
"< < < < < < < < < < < < < < < < < < < < < < < < < < < < < < < < < < < < < < < < < < < < < < < < < < < < < < < < < < < < ",
"< < < < < < < < < < < < < < < < < < < < < < < < < < < < < < < < < < < < < < < < < < ^$'$< < < < < < < < < < < < < < < < "};
