/* XPM */
static char * TX Tileset Wall_v1_xpm[] = {
"60 60 316 2",
"  	c None",
". 	c #868579",
"+ 	c #675341",
"@ 	c #8B8A7F",
"# 	c #634D3C",
"$ 	c #9A9891",
"% 	c #695645",
"& 	c #675545",
"* 	c #99978F",
"= 	c #7B766E",
"- 	c #9C9A92",
"; 	c #97958E",
"> 	c #94928B",
", 	c #93928A",
"' 	c #93918A",
") 	c #939189",
"! 	c #94928A",
"~ 	c #675443",
"{ 	c #929088",
"] 	c #908E86",
"^ 	c #918F87",
"/ 	c #918F88",
"( 	c #675544",
"_ 	c #79756D",
": 	c #7A756D",
"< 	c #949289",
"[ 	c #6E6A60",
"} 	c #6F6A62",
"| 	c #706B62",
"1 	c #706A62",
"2 	c #706B63",
"3 	c #716B63",
"4 	c #716C63",
"5 	c #706D62",
"6 	c #706C62",
"7 	c #5B4230",
"8 	c #6F6B61",
"9 	c #6F6A61",
"0 	c #6C685E",
"a 	c #6D685F",
"b 	c #5B4231",
"c 	c #6C675E",
"d 	c #6C665E",
"e 	c #6B665D",
"f 	c #6A665C",
"g 	c #6A655C",
"h 	c #8D8B82",
"i 	c #6D695F",
"j 	c #6D6A60",
"k 	c #6E6960",
"l 	c #6E6A61",
"m 	c #6F6C61",
"n 	c #6F6C62",
"o 	c #5C4332",
"p 	c #6B675D",
"q 	c #6B655D",
"r 	c #837F77",
"s 	c #6D675F",
"t 	c #6D6A5F",
"u 	c #6B665C",
"v 	c #6A655B",
"w 	c #6A645B",
"x 	c #6C665D",
"y 	c #6B655C",
"z 	c #6D6960",
"A 	c #6B645C",
"B 	c #6A665D",
"C 	c #6A645C",
"D 	c #5B4130",
"E 	c #6E6860",
"F 	c #6C685F",
"G 	c #69645A",
"H 	c #69635B",
"I 	c #68635A",
"J 	c #6A635B",
"K 	c #6A655D",
"L 	c #6B665E",
"M 	c #5A402E",
"N 	c #686359",
"O 	c #68645A",
"P 	c #69645B",
"Q 	c #69645C",
"R 	c #543421",
"S 	c #69635A",
"T 	c #686259",
"U 	c #676158",
"V 	c #68625A",
"W 	c #69625A",
"X 	c #53321E",
"Y 	c #686159",
"Z 	c #686158",
"` 	c #665F56",
" .	c #666057",
"..	c #676258",
"+.	c #676259",
"@.	c #676157",
"#.	c #676159",
"$.	c #512E1A",
"%.	c #655F56",
"&.	c #665F57",
"*.	c #666158",
"=.	c #4F2B17",
"-.	c #676058",
";.	c #676057",
">.	c #655E55",
",.	c #666058",
"'.	c #4D2713",
").	c #655F55",
"!.	c #4F2913",
"~.	c #4C2611",
"{.	c #4B2511",
"].	c #4D2712",
"^.	c #5D5349",
"/.	c #5D5348",
"(.	c #7A776C",
"_.	c #6C685C",
":.	c #6D685C",
"<.	c #5E554C",
"[.	c #5E554B",
"}.	c #5E554A",
"|.	c #5E544A",
"1.	c #5E5349",
"2.	c #5E5449",
"3.	c #4F311E",
"4.	c #5C5247",
"5.	c #5D5248",
"6.	c #5E5348",
"7.	c #61574A",
"8.	c #61584B",
"9.	c #62584B",
"0.	c #62574B",
"a.	c #62584C",
"b.	c #5E564C",
"c.	c #5F554C",
"d.	c #5F554B",
"e.	c #5D544A",
"f.	c #4F3625",
"g.	c #63584C",
"h.	c #63594D",
"i.	c #5F554A",
"j.	c #6C695D",
"k.	c #4F3626",
"l.	c #5F544A",
"m.	c #502A15",
"n.	c #6D685D",
"o.	c #6D695D",
"p.	c #5F564D",
"q.	c #5D5449",
"r.	c #655C50",
"s.	c #502C16",
"t.	c #706C63",
"u.	c #655F57",
"v.	c #5A4537",
"w.	c #512D18",
"x.	c #6E695E",
"y.	c #6E6A5E",
"z.	c #5A4739",
"A.	c #522E19",
"B.	c #52301C",
"C.	c #52311D",
"D.	c #594435",
"E.	c #5A4436",
"F.	c #5A4536",
"G.	c #5E5146",
"H.	c #5F5349",
"I.	c #584132",
"J.	c #543725",
"K.	c #53321F",
"L.	c #543726",
"M.	c #543826",
"N.	c #543827",
"O.	c #553827",
"P.	c #553928",
"Q.	c #553927",
"R.	c #4E2812",
"S.	c #63594C",
"T.	c #6D695E",
"U.	c #6C675F",
"V.	c #543624",
"W.	c #5D4D42",
"X.	c #5D4D43",
"Y.	c #522E1A",
"Z.	c #563B2B",
"`.	c #615851",
" +	c #522F1A",
".+	c #6E6A5F",
"++	c #6F6A5F",
"@+	c #512E19",
"#+	c #573E2E",
"$+	c #645A4D",
"%+	c #6F6B5F",
"&+	c #6E6B5F",
"*+	c #502D18",
"=+	c #5A4538",
"-+	c #655F53",
";+	c #655E52",
">+	c #6F6B60",
",+	c #6F6C60",
"'+	c #706B60",
")+	c #635C50",
"!+	c #645D51",
"~+	c #706C61",
"{+	c #706D61",
"]+	c #706C60",
"^+	c #512F1B",
"/+	c #52301D",
"(+	c #533320",
"_+	c #5D4E42",
":+	c #594537",
"<+	c #573D2E",
"[+	c #5C4C40",
"}+	c #5B4A3D",
"|+	c #5B493C",
"1+	c #5B483B",
"2+	c #60584C",
"3+	c #5E574B",
"4+	c #76726C",
"5+	c #543625",
"6+	c #665D50",
"7+	c #6B6458",
"8+	c #6C6459",
"9+	c #6C6559",
"0+	c #6C655A",
"a+	c #6D675B",
"b+	c #5D4432",
"c+	c #5B402D",
"d+	c #5B3F2D",
"e+	c #593B28",
"f+	c #593C29",
"g+	c #583A27",
"h+	c #54331F",
"i+	c #6D6861",
"j+	c #665F58",
"k+	c #553521",
"l+	c #583D2B",
"m+	c #583C2A",
"n+	c #573C29",
"o+	c #52301B",
"p+	c #563521",
"q+	c #838178",
"r+	c #726E62",
"s+	c #655D51",
"t+	c #665D51",
"u+	c #665E51",
"v+	c #848278",
"w+	c #716E62",
"x+	c #584031",
"y+	c #665D52",
"z+	c #675E51",
"A+	c #583F31",
"B+	c #675E52",
"C+	c #665E52",
"D+	c #675E53",
"E+	c #838177",
"F+	c #736F63",
"G+	c #726F63",
"H+	c #5C4B3F",
"I+	c #675F52",
"J+	c #675F53",
"K+	c #767469",
"L+	c #737065",
"M+	c #737064",
"N+	c #5C4C41",
"O+	c #828077",
"P+	c #747166",
"Q+	c #737166",
"R+	c #747266",
"S+	c #5B493D",
"T+	c #685F54",
"U+	c #686054",
"V+	c #757266",
"W+	c #757367",
"X+	c #573E2F",
"Y+	c #5B473A",
"Z+	c #5A473A",
"`+	c #5A463A",
" @	c #5A4639",
".@	c #5C4D41",
"+@	c #543623",
"@@	c #563C2C",
"#@	c #62554B",
"$@	c #553826",
"%@	c #686155",
"&@	c #828076",
"*@	c #767368",
"=@	c #757368",
"-@	c #573D2D",
";@	c #696155",
">@	c #696156",
",@	c #696256",
"'@	c #86847B",
")@	c #77756A",
"!@	c #696357",
"~@	c #696257",
"{@	c #6A6358",
"]@	c #696358",
"^@	c #78756A",
"/@	c #78766B",
"(@	c #79766B",
"_@	c #79766A",
":@	c #78766A",
"<@	c #563B2A",
"[@	c #6B6359",
"}@	c #8C8A81",
"|@	c #79776C",
"1@	c #56321C",
"2@	c #655444",
"3@	c #6A645A",
"4@	c #88867D",
"5@	c #696359",
"6@	c #8E8C84",
"7@	c #8D8B83",
"8@	c #89877E",
"9@	c #87857C",
"0@	c #5B5246",
"a@	c #7B786F",
". . . . . . . . . . . . . . . . . . . + . . . . . . . . . . . . . . . . . . . @ # @ . . . . . . . . . . . . . . . . . . ",
"$ $ . . . . . . . . . . . . . . . . . % . . . . . . . . . . . . . . . . . . . @ & @ . . . . . . . . . . . . . . . . . * ",
"= = - - ; > > , ' ' ) ' ' ) ) ) ! * * ~ * * * > { ] ] ] ^ / > > > > > > > * * * ( * * * > > > > > > > > > > > > * * * _ ",
": = < [ [ [ } | | 1 2 3 4 4 4 5 4 4 6 7 | | | | | | 8 9 [ [ 0 0 0 0 0 a a a a a b a a a c 0 0 0 0 c c d d d e e e f g * ",
": h i i i i j [ [ k l 9 9 9 8 9 8 m n o 8 8 8 8 8 9 9 [ k i 0 0 0 0 0 0 0 0 0 0 b c c c c c c c p p e e e e e e q g g * ",
"r c 0 0 s s a a a a i k t [ [ l 9 9 9 o 9 9 9 [ [ k k k i i c c c c c c c c p p b c c c c d d e e e e e e e u u u v w w ",
"r c x y d d c s s s s a a i z k l 9 [ b k [ k k k k k k i a e e e e e e e e e e b e e e e e e e e e e q q q A w w w w w ",
"B e C A y q e e c d d d c s s a a a a D i k k k z E F 0 0 c e e e e e e e e e e b e q q q q q g g g g v v w G H H H H I ",
"C C I H J w g K B K q q K q L L L d d M c a a s c c 0 0 c c f g g q q q q q q q b g g g g g g g g g g v w H H H I N N N ",
"O I N I I J P C Q C P Q C C C C q q q R e d d d d e e e e g g P P P P P P P g g b g g g g g g g g g v J H H H S N N T T ",
"U U T N I V W P P P P H P P P P P P P X P C C g g g g g g g P P P P P P P P g P X g g g g P P P P G S S V V T Y Y Y Z Z ",
"`  .U ..+.V W W S H H H H H H H P P P X P P P P P P P P P P P P P H P P P P P H X P P P H H H H H W W V V T Y Y Z Z U @.",
" .`  .U U #.Y Y V V V V V V V V V V I $.V V V V I H H H H H H H H H H H H H H H X H H H H H H H S W V V T T Y Z @.@. . .",
"%.` ` &. .*.U U ..+.+.+.+.#.#.#.#.#.#.=.#.#.+.#.+.+.+.+.+.#.I I I I I I I H H H X H H H H H H H N T +.+...-.;.;. .` ` ` ",
">.%.` `  . .,.-.U #.#.#.#.#.#.#.#.#.#.'.#.#.#.#.#.#.#.#.#.#.#.#.+.+.+.+.+.+.V +.X V V V V V V V T Y #.#.U -.;. . .` ` ` ",
">.).` ` &. .,.-.U #.#.#.#.#.#.#.#.#.#.!.#.#.#.#.#.#.#.#.#.#.#.#.#.#.#.#.#.#.#.#.X #.#.#.#.#.#.#.U -.,.,. .&.` ` ).).>.>.",
"~.{.{.{.{.{.{.{.{.{.{.{.{.{.{.{.{.~.].^.!.!.!.!.!.!.!.!.!.!.!.!.!.!.!.!.!.!.!.!./.!.!.!.!.!.!.!.!.!.!.!.!.!.!.!.!.!.!.!.",
"!.(._._._._.:.:.:.!.<.[.[.[.}.|.1.|.2.^.^.3.4.4.4.4.4.4.4.4.5.5.5.5.5.5././././././.6.2.2.|.|.|.|.|.|.!.7.8.8.9.8.9.9.!.",
"!.(._._._._._._.:.!.<.[.[.[.}.|.|.|.|.^.^.3.^.4.4.4.4.4.4.4.5.5.5./.5.5././././././.6.2.2.|.|.|.|.|.}.!.0.9.a.a.9.9.9.!.",
"!.(._._._._._._.:.!.b.c.d.d.}.|.|.|.|.e.^.f.^.4.4.4.4.4.4.4.5.5.5././.5././././././.6.2.2.|.|.|.|.|.|.!.9.g.g.h.h.9.9.!.",
"!.(._._._._._._._.!.b.c.d.[.i.|.|.|.|.e.^.f.4.4.4.4.4.4.4.4.5.5.5./././././././././.6.2.2.|.|.|.|.|.|.!.g.h.a.a.9.9.9.!.",
"!.(._.j.j.j.j.j.j.!.b.<.c.d.i.|.|.|.|.e.e.k.^.4.4.4.4.4.4.4.5.5.5./././././././././.6.2.2.|.|.|.|.|.l.!.h.h.a.h.9.9.9.!.",
"m.(.n.n.o.o.o.o.o.!.p.p.c.c.d.|.|.|.|.e.e.k.^.4.4.4.4.4.4.4.5.5.5.5././././././././.1.2.q.|.|.|.|.|.i.!.7.8.8.9.9.9.r.!.",
"s.(.n.n.n.o.o.o.o.!.t.u.u.u.u.u.u.u.u.u.u.v.#.#.#.#.#.#.#.#.#.#.#.#.#.#.#.#.#.#.#.#.#.#.#.#.#.#.#.#.#.!.0.9.a.9.9.9.r.!.",
"w.(.o.o.o.n.x.x.y.!.t.u.u.u.u.u.u.u.u.u.u.z.#.#.#.#.#.#.#.#.#.#.#.#.#.#.#.#.#.#.#.#.#.#.#.#.#.#.#.#.#.!.9.g.g.h.h.r.r.!.",
"A.(.o.o.o.x.x.x.y.y.!.B.C.D.D.D.D.D.E.F.F.F.F.G.G.G.G.G.G.G.H.H.H.I.I.J.K.J.J.J.L.M.J.N.O.O.P.Q.M.R.R.S.g.h.a.a.S.r.r.!.",
"A.(.T.T.T.x.x.x.y.!.t.t.t.t.a a a a a a a a a a a a a a a a U.U.U.U.U.U.V.W.W.W.W.W.W.W.W.W.W.W.X.!.h.h.a.h.a.h.r.r.r.!.",
"Y.(.x.y.y.y.y.y.y.!.t.#.#.#.#.#.#.#.#.#.#.#.#.#.#.#.#.#.#.#.#.#.#.#.#.#.Z.W.`.`.`.`.`.`.`.`.`.`.`.!.h.h.a.S.S.S.r.r.r.!.",
" +(..+.+.+y.y..+++@+t.#.#.#.#.#.#.#.#.#.#.#.#.#.#.#.#.#.#.#.#.#.#.#.#.#.#+`.`.`.`.`.`.`.`.`.`.`.`.!.$+$+S.S.S.r.r.r.r.!.",
" +(.%+%+&+%+%+%+%+*+t.#.#.#.#.#.#.#.#.#.#.#.#.#.#.#.#.#.#.#.#.#.#.#.#.#.v.`.`.`.`.`.`.`.`.`.`.`.`.!.S.S.S.S.S.r.r.r.r.!.",
" +(.%+%+%+%+%+%+%+!.t.#.#.#.#.#.#.#.#.#.#.#.#.#.#.#.#.#.#.#.#.#.#.#.#.#.=+`.`.`.`.`.`.`.`.`.`.`.`.!.S.S.S.S.r.r.r.r.r.!.",
" +(.%+%+%+%+%+%+%+!.t.#.#.#.#.#.#.#.#.#.#.#.#.#.#.#.#.#.#.#.#.#.#.#.#.#.H.`.`.`.`.`.`.`.`.`.`.`.`.!.S.S.S.S.r.r.r.r.r.!.",
" +-+(.%+%+%+%+%+%+!.t.#.#.#.#.#.#.#.#.#.#.#.#.#.#.#.#.#.#.#.#.#.#.#.#.#.H.`.`.`.`.`.`.`.`.`.`.`.`.!.S.S.S.r.r.r.r.r.r.!.",
" +;+(.>+>+,+,+,+'+!.t.#.#.#.#.#.#.#.#.#.#.#.#.#.#.#.#.#.#.#.#.#.#.#.#.#.H.`.`.`.`.`.`.`.`.`.`.`.`.!.S.S.S.r.r.r.r.r.r.!.",
" +)+!+(.m ~+{+{+]+^+^+/+(+W.W.W.W._+_+_+:+<+Z.Z.Z.[+}+|+|+1+H.H.H.H.H.H.H.H.H.H.H.H.H.H.H.I.I.R.R.!.S.S.r.r.r.r.r.r.r.!.",
"   +2+3+(.(.(.(.!.4+4+4+4+4+4+4+4+4+4+4+4+4+5+U.U.U.U.U.Q Q U.U.U.U.U.U.U.U.U.U.U.U.U.U.U.U.U.U.U.t.!.6+7+8+9+9+9+0+a+!.",
"  b+c+d+e+f+g+h+w.4+i+i+i+i+i+i+i+i+i+i+i+i+5+j+j+j+j+j+j+j+j+j+j+j+j+j+j+j+j+j+j+j+j+j+j+j+j+j+j+t. + + +k+l+m+n+m+m+o+",
"p+q+r+r+r+r+r+r+!.4+i+i+i+i+i+i+i+i+i+i+i+i+<+j+j+j+j+j+j+j+j+j+j+j+j+j+j+j+j+j+j+j+j+j+j+j+j+j+j+t.!.s+s+t+t+u+u+s+s+!.",
"p+v+r+r+r+r+r+w+!.4+i+i+i+i+i+i+i+i+i+i+i+i+x+j+j+j+j+j+j+j+j+j+j+j+j+j+j+j+j+j+j+j+j+j+j+j+j+j+j+t.!.t+s+s+t+t+y+z+v+!.",
"p+v+r+r+r+r+r+r+!.4+i+i+i+i+i+i+i+i+i+i+i+i+A+j+j+j+j+j+j+j+j+j+j+j+j+j+j+j+j+j+j+j+j+j+j+j+j+j+j+t.!.B+C+C+C+C+B+D+v+!.",
"p+E+F+G+G+G+G+G+!.4+i+i+i+i+i+i+i+i+i+i+i+i+H+j+j+j+j+j+j+j+j+j+j+j+j+j+j+j+j+j+j+j+j+j+j+j+j+j+j+t.!.D+I+J+J+J+J+K+v+!.",
"p+E+L+L+L+M+M+M+!.4+i+i+i+i+i+i+i+i+i+i+i+i+N+j+j+j+j+j+j+j+j+j+j+j+j+j+j+j+j+j+j+j+j+j+j+j+j+j+j+t.!.J+J+J+J+J+J+K+O+!.",
"p+E+P+P+P+P+Q+Q+R+!.i+i+i+i+i+i+i+i+i+i+i+S+H+j+j+j+j+j+j+j+j+j+j+j+j+j+j+j+j+j+j+j+j+j+j+j+j+j+j+!.J+J+T+U+U+J+K+K+O+!.",
"p+q+V+R+V+V+V+R+W+W+!.@+X+X+X+Y+Z+`+ @ @_+[+[+H.H.H.H.H.H.H..@.@W.H.I.I.+@@@I.H.H.H.H.H.H.I.I.R.R.U+J+U+U+U+U+U+K+K+O+!.",
"p+q+W+V+V+V+V+W+W+!.#@#@#@#@#@#@#@#@#@#@#@#@U.U.U.U.U.U.U.U.U.U.U.U.U.U.$@U.U.U.U.U.U.U.U.U.U.U.t.!.%@U+U+U+U+K+K+K+&@!.",
"p+v+*@=@=@=@W+W+*@!.t.j+j+j+j+j+j+j+j+j+j+j+j+j+j+j+j+j+j+j+j+j+j+j+j+j+-@j+j+j+j+j+j+j+j+j+j+j+t.!.;@;@;@>@>@K+K+K+&@!.",
"p+q+K+K+K+K+*@*@*@!.t.j+j+j+j+j+j+j+j+j+j+j+j+j+j+j+j+j+j+j+j+j+j+j+j+j+H.j+j+j+j+j+j+j+j+j+j+j+t.!.,@>@>@>@K+K+K+K+&@!.",
"p+'@)@)@)@)@K+K+K+!.t.j+j+j+j+j+j+j+j+j+j+j+j+j+j+j+j+j+j+j+j+j+j+j+j+j+H.j+j+j+j+j+j+j+j+j+j+j+t.!.!@~@~@,@K+K+K+K+&@!.",
"p+'@)@)@)@)@)@)@K+!.t.j+j+j+j+j+j+j+j+j+j+j+j+j+j+j+j+j+j+j+j+j+j+j+j+j+H.j+j+j+j+j+j+j+j+j+j+j+t.!.{@]@]@K+K+K+K+K+&@!.",
"p+'@)@)@)@)@)@)@K+!.t.j+j+j+j+j+j+j+j+j+j+j+j+j+j+j+j+j+j+j+j+j+j+j+j+j+H.j+j+j+j+j+j+j+j+j+j+j+t.!.{@{@{@K+K+K+K+K+&@!.",
"p+'@^@^@^@^@^@^@^@!.t.j+j+j+j+j+j+j+j+j+j+j+j+j+j+j+j+j+j+j+j+j+j+j+j+j+I.j+j+j+j+j+j+j+j+j+j+j+t.!.{@K+K+K+K+K+K+K+&@!.",
"p+'@/@(@(@_@/@/@:@!.j+j+j+j+j+j+j+j+j+j+j+j+j+j+j+j+j+j+j+j+j+j+j+j+j+j+<@j+j+j+j+j+j+j+j+j+j+j+t.!.[@K+K+K+K+K+K+K+&@!.",
"p+}@|@|@|@|@|@/@/@/@1@1@1@1@1@1@1@1@1@j+1@1@1@1@1@1@1@1@1@1@1@1@1@1@1@1@1@1@1@1@j+1@1@1@1@1@1@1@1@K+K+K+K+K+K+K+K+K+}@!.",
"p+}@|@|@|@|@|@/@/@/@/@/@)@)@)@)@K+K+K+!.K+K+K+K+K+K+K+K+K+K+K+K+K+K+K+K+K+K+K+K+1@K+K+K+K+K+K+K+K+K+K+K+K+K+K+K+K+K+}@!.",
"p+}@|@|@|@|@|@|@/@/@/@/@)@)@)@)@K+K+K+2@K+K+K+K+K+K+K+K+K+K+K+K+K+K+K+K+K+K+K+K+2@K+K+K+K+K+K+K+K+K+K+K+K+K+K+K+K+K+}@!.",
"p+^ |@|@|@|@|@|@/@/@/@/@)@)@)@)@K+K+K+2@K+K+K+K+K+K+K+K+K+K+K+K+K+K+K+K+K+K+K+K+2@K+K+K+K+K+K+K+K+K+K+K+K+K+K+K+K+}@3@!.",
"p+] |@|@|@|@|@/@/@/@/@/@)@)@)@)@K+K+K+2@K+K+K+K+K+K+K+K+K+K+K+K+K+K+K+K+K+K+K+K+2@K+K+K+K+K+K+K+K+K+K+K+K+K+K+K+4@5@5@!.",
"p+] 6@6@6@7@8@9@'@'@'@'@'@'@'@'@'@'@'@2@'@'@'@'@'@'@'@'@'@'@'@'@'@'@'@'@'@'@'@'@2@'@'@'@'@'@'@'@'@'@'@'@'@}@}@}@5@5@0@!.",
"!.9  . . . . . . . . . . . . . . . . .2@ . . . . . . . . . . . . . . . . . . . .2@ . . . . . . . . . . . . . . .a@a@0@!.",
"!.9  . . . . . . . . . . . . . . . . .2@ . . . . . . . . . . . . . . . . . . . .2@ . . . . . . . . . . . . . . . . .a@!."};
